<?xml version="1.0" encoding="UTF-8" standalone="no"?>
<svg width="62px" height="57px" viewBox="0 0 62 57" version="1.1" xmlns="http://www.w3.org/2000/svg" xmlns:xlink="http://www.w3.org/1999/xlink">
    <!-- Generator: Sketch 50.2 (55047) - http://www.bohemiancoding.com/sketch -->
    <title>coding-icon</title>
    <desc>Created with Sketch.</desc>
    <defs>
        <linearGradient x1="50%" y1="0%" x2="50%" y2="100%" id="linearGradient-1">
            <stop stop-color="#43CEA2" offset="0%"></stop>
            <stop stop-color="#185A9D" offset="100%"></stop>
        </linearGradient>
    </defs>
    <g id="網頁mockup" stroke="none" stroke-width="1" fill="none" fill-rule="evenodd">
        <g id="skill" transform="translate(-564.000000, -338.000000)">
            <g id="Group-6" transform="translate(543.000000, 315.000000)">
                <g id="coding-icon" transform="translate(22.000000, 24.000000)">
                    <path d="M56.3493631,0 L3.60286624,0 C1.61598726,0 0,1.62634615 0,3.62596154 L0,51.1869231 C0,53.1865385 1.61598726,54.8128846 3.60286624,54.8128846 L56.3499363,54.8128846 C58.336242,54.8128846 59.9522293,53.1865385 59.9522293,51.1869231 L59.9522293,3.62596154 C59.9522293,1.62711538 58.336242,0 56.3493631,0 Z M45.4866879,6.08846154 C45.4866879,5.34923077 46.082293,4.74980769 46.8168153,4.74980769 L48.147707,4.74980769 C48.8820382,4.74980769 49.4778344,5.34923077 49.4778344,6.08846154 L49.4778344,7.60596154 C49.4778344,8.34576923 48.8820382,8.94461538 48.147707,8.94461538 L46.8168153,8.94461538 C46.082293,8.94461538 45.4866879,8.34576923 45.4866879,7.60596154 L45.4866879,6.08846154 Z M39.3011465,6.08846154 C39.3011465,5.34923077 39.8967516,4.74980769 40.6312739,4.74980769 L41.9614013,4.74980769 C42.6957325,4.74980769 43.2915287,5.34923077 43.2915287,6.08846154 L43.2915287,7.60596154 C43.2915287,8.34576923 42.6957325,8.94461538 41.9614013,8.94461538 L40.6312739,8.94461538 C39.8967516,8.94461538 39.3011465,8.34576923 39.3011465,7.60596154 L39.3011465,6.08846154 Z M55.6289809,50.4611538 L4.32324841,50.4611538 L4.32324841,12.9665385 L55.6282166,12.9665385 L55.6282166,50.4611538 L55.6289809,50.4611538 Z M55.6633758,7.60596154 C55.6633758,8.34576923 55.0677707,8.94461538 54.3332484,8.94461538 L53.003121,8.94461538 C52.2678344,8.94461538 51.6729936,8.34576923 51.6729936,7.60596154 L51.6729936,6.08846154 C51.6729936,5.34923077 52.2678344,4.74980769 53.003121,4.74980769 L54.3332484,4.74980769 C55.0677707,4.74980769 55.6633758,5.34923077 55.6633758,6.08846154 L55.6633758,7.60596154 Z" id="Fill-1" stroke="#43CEA2" fill="#83E7C7"></path>
                    <path d="M12.8690446,33.1278846 C12.2098089,32.8184615 11.7852229,32.1476923 11.7852229,31.4175 L11.7852229,31.2830769 C11.7852229,30.5521154 12.2105732,29.8805769 12.8690446,29.5725 L22.5118471,25.0592308 C22.756051,24.9459615 23.028535,24.885 23.3002548,24.885 C23.6614013,24.885 24.0107006,24.9871154 24.3101274,25.1801923 C24.8526115,25.5273077 25.1766879,26.1223077 25.1766879,26.7698077 L25.1766879,26.8194231 C25.1766879,27.5496154 24.7503822,28.2211538 24.0913376,28.5298077 L18.0603822,31.3498077 L24.0913376,34.1705769 C24.7503822,34.4786538 25.1766879,35.1501923 25.1766879,35.8811538 L25.1766879,35.9307692 C25.1766879,36.5775 24.8526115,37.1717308 24.3101274,37.5201923 C24.0070701,37.7140385 23.6591083,37.8161538 23.3015924,37.8161538 C23.0270064,37.8161538 22.7619745,37.7576923 22.5126115,37.6411538 L12.8690446,33.1278846 Z M25.2624841,42.3203846 C24.9108917,41.8367308 24.8086624,41.2063462 24.99,40.6340385 L31.3427389,20.8232692 C31.5921019,20.0398077 32.3094268,19.5132692 33.1282166,19.5132692 L33.1759873,19.5132692 C33.7723567,19.5132692 34.3381529,19.8023077 34.6897452,20.2869231 C35.0421019,20.7721154 35.1428025,21.4032692 34.9607006,21.9748077 L28.6079618,41.7840385 C28.3585987,42.5675 27.6420382,43.095 26.8240127,43.095 L26.7754777,43.095 C26.1798726,43.095 25.6140764,42.8057692 25.2624841,42.3203846 Z M34.7755414,26.8194231 L34.7755414,26.7705769 C34.7755414,26.1223077 35.0996178,25.5280769 35.6428662,25.1801923 C35.942293,24.9871154 36.2923567,24.8857692 36.6519745,24.8857692 C36.9244586,24.8857692 37.1969427,24.9459615 37.4396178,25.06 L47.0824204,29.5725 C47.7416561,29.8813462 48.1670064,30.5521154 48.1670064,31.2830769 L48.1670064,31.4182692 C48.1670064,32.1476923 47.7416561,32.8192308 47.0831847,33.1278846 L37.4403822,37.6411538 C37.1894904,37.7576923 36.9244586,37.8161538 36.6498726,37.8161538 C36.2923567,37.8161538 35.9436306,37.7140385 35.6421019,37.5209615 C35.0996178,37.1717308 34.7755414,36.5775 34.7755414,35.9307692 L34.7755414,35.8811538 C34.7755414,35.1501923 35.2018471,34.4786538 35.8601274,34.1705769 L41.8910828,31.3505769 L35.8601274,28.5305769 C35.2010828,28.2211538 34.7755414,27.5496154 34.7755414,26.8194231 Z" id="Combined-Shape" fill="url(#linearGradient-1)"></path>
                </g>
            </g>
        </g>
    </g>
</svg>