<?xml version="1.0" encoding="UTF-8" standalone="no"?>
<svg width="62px" height="57px" viewBox="0 0 62 57" version="1.1" xmlns="http://www.w3.org/2000/svg" xmlns:xlink="http://www.w3.org/1999/xlink">
    <!-- Generator: Sketch 50.2 (55047) - http://www.bohemiancoding.com/sketch -->
    <title>design-icon</title>
    <desc>Created with Sketch.</desc>
    <defs>
        <linearGradient x1="50%" y1="0%" x2="50%" y2="100%" id="linearGradient-1">
            <stop stop-color="#43CEA2" offset="0%"></stop>
            <stop stop-color="#185A9D" offset="100%"></stop>
        </linearGradient>
    </defs>
    <g id="網頁mockup" stroke="none" stroke-width="1" fill="none" fill-rule="evenodd">
        <g id="skill" transform="translate(-1305.000000, -338.000000)">
            <g id="Group-6-Copy" transform="translate(1284.000000, 315.000000)">
                <g id="design-icon" transform="translate(22.000000, 24.000000)">
                    <path d="M56.3493631,0 L3.60286624,0 C1.61598726,0 0,1.62634615 0,3.62596154 L0,51.1869231 C0,53.1865385 1.61598726,54.8128846 3.60286624,54.8128846 L56.3499363,54.8128846 C58.336242,54.8128846 59.9522293,53.1865385 59.9522293,51.1869231 L59.9522293,3.62596154 C59.9522293,1.62711538 58.336242,0 56.3493631,0 Z M45.4866879,6.08846154 C45.4866879,5.34923077 46.082293,4.74980769 46.8168153,4.74980769 L48.147707,4.74980769 C48.8820382,4.74980769 49.4778344,5.34923077 49.4778344,6.08846154 L49.4778344,7.60596154 C49.4778344,8.34576923 48.8820382,8.94461538 48.147707,8.94461538 L46.8168153,8.94461538 C46.082293,8.94461538 45.4866879,8.34576923 45.4866879,7.60596154 L45.4866879,6.08846154 Z M39.3011465,6.08846154 C39.3011465,5.34923077 39.8967516,4.74980769 40.6312739,4.74980769 L41.9614013,4.74980769 C42.6957325,4.74980769 43.2915287,5.34923077 43.2915287,6.08846154 L43.2915287,7.60596154 C43.2915287,8.34576923 42.6957325,8.94461538 41.9614013,8.94461538 L40.6312739,8.94461538 C39.8967516,8.94461538 39.3011465,8.34576923 39.3011465,7.60596154 L39.3011465,6.08846154 Z M55.6289809,50.4611538 L4.32324841,50.4611538 L4.32324841,12.9665385 L55.6282166,12.9665385 L55.6282166,50.4611538 L55.6289809,50.4611538 Z M55.6633758,7.60596154 C55.6633758,8.34576923 55.0677707,8.94461538 54.3332484,8.94461538 L53.003121,8.94461538 C52.2678344,8.94461538 51.6729936,8.34576923 51.6729936,7.60596154 L51.6729936,6.08846154 C51.6729936,5.34923077 52.2678344,4.74980769 53.003121,4.74980769 L54.3332484,4.74980769 C55.0677707,4.74980769 55.6633758,5.34923077 55.6633758,6.08846154 L55.6633758,7.60596154 Z" id="Fill-1" stroke="#43CEA2" fill="#83E7C7"></path>
                    <path d="M24.5573915,24.0868654 C24.8845725,23.5744025 25.4471782,23.2684482 26.0623029,23.2684482 C26.396255,23.2684482 26.7231757,23.3613898 27.0069525,23.5379448 C27.8360601,24.0524615 28.0856344,25.1362674 27.5640892,25.9532296 C27.2365609,26.465778 26.6739553,26.7719891 26.0589173,26.7719891 C25.7245312,26.7719891 25.3979578,26.6787051 25.1138337,26.5022358 C24.7123446,26.2531077 24.4332554,25.8646526 24.3281303,25.4083314 C24.2230053,24.9520101 24.3044316,24.4826804 24.5573915,24.0868654 M18.8673576,34.4897409 C19.1945386,33.9771925 19.7571442,33.6709814 20.3726162,33.6709814 C20.7065683,33.6709814 21.0331418,33.7642654 21.3172658,33.9408203 C21.7187549,34.1902052 21.9978441,34.5786602 22.1033164,35.0349815 C22.2084414,35.4909604 22.1271019,35.9602901 21.8737948,36.3561052 C21.5468742,36.868568 20.9840082,37.1745223 20.3688834,37.1745223 C20.0348445,37.1745223 19.7079239,37.0815807 19.4237998,36.9050258 C19.0223107,36.6556409 18.7432215,36.2671859 18.6380964,35.8108646 C18.5333186,35.3548856 18.614745,34.885556 18.8673576,34.4897409 M20.7296594,30.6324911 C20.3956204,30.6324911 20.0687866,30.5395494 19.7845757,30.3630801 C19.3830866,30.1136952 19.1039974,29.7252402 18.9988724,29.2689189 C18.8937473,28.8129399 18.9751737,28.3435247 19.2281335,27.9473673 C19.5554014,27.4352468 20.1179202,27.1290357 20.7330449,27.1290357 C21.0674311,27.1290357 21.3942649,27.2223197 21.6781286,27.398789 C22.5071493,27.9136481 22.7567237,28.9971116 22.234918,29.8141595 C21.9076501,30.3266223 21.3447841,30.6324911 20.7296594,30.6324911 M36.4999781,30.6438734 C37.398272,29.3390958 38.3483905,28.0423629 39.2503304,26.8886369 C39.3968631,27.018721 39.5603234,27.1460665 39.7373258,27.2670789 C40.0309989,27.4680246 40.3378668,27.6230985 40.6515057,27.7297332 C39.8899351,29.0138 39.0706369,30.2861422 38.0791107,31.7263955 C36.4498028,34.0932412 34.7553017,36.291919 33.3083784,37.9172854 C32.5003652,38.8249642 31.7929631,39.5259633 31.2480665,39.9602045 C31.4583165,39.2966901 31.8605001,38.386016 32.4199806,37.3071739 C33.4202745,35.3782494 34.8696285,33.0117461 36.4999781,30.6438734 M34.194085,27.4703353 C33.8665567,27.9827981 33.3039511,28.2887524 32.6889132,28.2887524 C32.3548743,28.2887524 32.0279536,28.1954685 31.7441768,28.0192559 C31.3423404,27.769871 31.0632513,27.3814159 30.9581262,26.9250947 C30.8530012,26.4691157 30.9340803,25.9997005 31.1870401,25.6036287 C31.5145684,25.0910803 32.077174,24.7852115 32.6922987,24.7852115 C33.0265981,24.7852115 33.3531715,24.8784955 33.6372956,25.0549648 C34.0387847,25.3040929 34.3178739,25.692548 34.4229989,26.1488693 C34.528124,26.6051905 34.4467845,27.0745202 34.194085,27.4703353 M44.3937315,20.760564 C44.3378268,20.6204668 44.2083086,20.5218768 44.056741,20.5034768 C43.9054339,20.485419 43.7556025,20.5502899 43.6670579,20.6729284 C43.1404778,21.4003723 42.4497429,21.6430818 41.6494557,21.9238751 C41.0042085,22.1505809 40.3368251,22.3849034 39.6155336,22.8953978 C38.5955342,23.6171934 38.1290256,24.6013821 38.3615854,25.5340508 L38.336845,25.5654593 C37.9109627,24.9560324 37.4474056,24.3927341 36.9584135,23.8895997 C34.6705767,21.5361048 31.4732476,20.1210124 28.1866794,20.0077023 C28.0418829,20.002653 27.8947426,20 27.7492516,20 C24.0792505,20 20.5665463,21.6173217 18.1118636,24.4375789 C15.6696813,27.2430304 14.5876139,30.8949699 15.1424067,34.4569631 C15.1888492,34.7547872 15.2468373,35.0556922 15.3149819,35.351548 C16.2176162,39.2679347 18.5228148,42.2472026 21.639412,43.5249363 C22.4078405,43.8401335 23.1826928,44 23.942614,44 C25.8303507,44 27.4793641,43.0044288 28.4664631,41.2687477 C28.8418228,40.6084854 29.0839316,39.9254584 29.1860184,39.2388369 C29.246003,38.8332656 29.2050294,38.4284645 29.165358,38.0359871 C29.1242976,37.631785 29.0853206,37.2503477 29.1473886,36.865915 C29.2894072,35.9846809 29.9137337,35.4588673 30.8174097,35.4588673 C31.0744495,35.4588673 31.3372187,35.5002888 31.5993803,35.5828751 C31.2921652,36.1381288 31.0134232,36.6683926 30.7695782,37.1598023 C30.2531547,38.2011596 29.8967192,39.0636513 29.7106019,39.723229 C29.5956675,40.1297418 29.2901017,41.2102099 30.0347447,41.7196774 C30.2711241,41.8815122 30.5708737,41.9386808 30.8832105,41.8815122 C31.1642963,41.8299921 32.0197936,41.6732065 34.4511249,38.9446073 C35.1035772,38.2121997 35.8068994,37.3650271 36.5416461,36.4253407 C38.4284279,35.7987976 39.8967062,34.2400137 40.2849136,32.4484478 C40.3823127,32.0008558 40.422939,31.5214275 40.4056642,31.0236847 C41.1120246,29.9471533 41.7315765,28.9429384 42.3551217,27.8634973 C42.3670144,27.8427865 42.3789072,27.8203641 42.3903659,27.7975994 C43.2954309,27.5536062 44.0750576,26.8591968 44.5324514,25.888102 C45.2004424,24.4709557 45.1513089,22.6500353 44.3937315,20.760564" id="Fill-1" fill="url(#linearGradient-1)" transform="translate(30.000000, 32.000000) rotate(-9.000000) translate(-30.000000, -32.000000) "></path>
                </g>
            </g>
        </g>
    </g>
</svg>