<?xml version="1.0" encoding="UTF-8" standalone="no"?>
<svg width="60px" height="60px" viewBox="0 0 60 60" version="1.1" xmlns="http://www.w3.org/2000/svg" xmlns:xlink="http://www.w3.org/1999/xlink">
    <!-- Generator: Sketch 50.2 (55047) - http://www.bohemiancoding.com/sketch -->
    <title>education-icon</title>
    <desc>Created with Sketch.</desc>
    <defs></defs>
    <g id="作品標籤一覽" stroke="none" stroke-width="1" fill="none" fill-rule="evenodd">
        <g id="icon" transform="translate(-93.000000, -92.000000)">
            <g id="education-icon" transform="translate(93.000000, 92.000000)">
                <rect id="Rectangle-3-Copy" x="0" y="0" width="60" height="60"></rect>
                <g id="Group-5" transform="translate(5.000000, 13.000000)">
                    <path d="M41.0550771,16.5467226 L41.0550771,28.7759015 C41.0550771,28.7759015 33.6170308,34.9439489 24.234383,34.9439489 C14.8517352,34.9439489 7.43515424,28.7759015 7.43515424,28.7759015 L7.43515424,16.5467226 L41.0550771,16.5467226 Z" id="Stroke-7" fill="#A3B6CA"></path>
                    <path d="M41.0550771,16.5467226 L41.0550771,28.7759015 C41.0550771,28.7759015 32.6447301,34.9439489 24.234383,34.9439489 C24.234383,34.9439489 24.234383,29.1292993 24.234383,17.5 L41.0550771,16.5467226 Z" id="Stroke-7" fill="#6A8FB4"></path>
                    <polyline id="Stroke-1" fill="#A3B6CA" points="29.2796401 1.93725 24.2343959 -1.27737227e-05 -5.14138816e-05 9.30538869 24.2343959 18.6105347 48.4689717 9.30538869 32.9692288 3.35385584"></polyline>
                    <polyline id="Stroke-1" stroke="#185A9D" stroke-width="1.4" stroke-linecap="round" stroke-linejoin="round" points="29.2796401 1.93725 24.2343959 -1.27737227e-05 -5.14138818e-05 9.30538869 24.2343959 18.6105347 48.4689717 9.30538869 33.75 3.75"></polyline>
                    <polygon id="Stroke-3" stroke="#185A9D" stroke-width="1.4" fill="#A3B6CA" stroke-linecap="round" stroke-linejoin="round" points="0 9.30535036 0 13.7000219 24.2344473 23.0051679 24.2344473 18.6104964"></polygon>
                    <polygon id="Stroke-5" stroke="#185A9D" stroke-width="1.4" fill="#6A8FB4" stroke-linecap="round" stroke-linejoin="round" points="24.2344087 18.6104708 24.2344087 23.0051423 48.4689846 13.6999964 48.4689846 9.30532482"></polygon>
                    <path d="M41.0550771,16.5467226 L41.0550771,28.7759015 C41.0550771,28.7759015 33.6170308,34.9439489 24.234383,34.9439489 C14.8517352,34.9439489 7.43515424,28.7759015 7.43515424,28.7759015 L7.43515424,23.3888151" id="Stroke-7" stroke="#185A9D" stroke-width="1.4" stroke-linecap="round" stroke-linejoin="round"></path>
                    <path d="M7.4351671,19.1626277 L7.4351671,16.5548723" id="Stroke-9" stroke="#185A9D" stroke-width="1.4" stroke-linecap="round" stroke-linejoin="round"></path>
                    <polyline id="Stroke-11" stroke="#F8E71C" stroke-width="1.66666667" stroke-linecap="round" stroke-linejoin="round" points="24.2344087 9.30533759 48.4689846 9.30533759 48.4689846 23.1100274"></polyline>
                    <path d="M48.4424036,24.0475036 C47.7413753,24.0475036 47.1677249,24.6173394 47.1677249,25.3140182 L47.1677249,26.0727774 L47.1677249,27.0557153 L47.1677249,29.1603139 L47.5791645,29.1603139 L47.5791645,27.983854 C47.6548715,28.0532153 47.7377763,28.1142737 47.8283933,28.1640912 L47.8283933,29.1603139 L48.2398329,29.1603139 L48.2398329,28.3047299 C48.3062853,28.3154599 48.3733805,28.3224854 48.4424036,28.3224854 C48.5115553,28.3224854 48.5785219,28.3154599 48.6451028,28.3047299 L48.6451028,29.1603139 L49.0564139,29.1603139 L49.0564139,28.1640912 C49.1470308,28.1142737 49.2299357,28.0532153 49.3051285,27.983854 L49.3051285,29.1603139 L49.7170823,29.1603139 L49.7170823,27.0557153 L49.7170823,26.0727774 L49.7170823,25.3140182 C49.7170823,24.6173394 49.1434319,24.0475036 48.4424036,24.0475036" id="Fill-13" fill="#F8E71C"></path>
                    <path d="M49.9294344,23.1100146 C49.9294344,23.911438 49.2754499,24.561365 48.4690231,24.561365 C47.6625964,24.561365 47.0086118,23.911438 47.0086118,23.1100146 C47.0086118,22.3083358 47.6625964,21.6586642 48.4690231,21.6586642 C49.2754499,21.6586642 49.9294344,22.3083358 49.9294344,23.1100146" id="Fill-15" fill="#F8E71C"></path>
                </g>
            </g>
        </g>
    </g>
</svg>