<?xml version="1.0" encoding="UTF-8" standalone="no"?>
<svg width="60px" height="60px" viewBox="0 0 60 60" version="1.1" xmlns="http://www.w3.org/2000/svg" xmlns:xlink="http://www.w3.org/1999/xlink">
    <!-- Generator: Sketch 50.2 (55047) - http://www.bohemiancoding.com/sketch -->
    <title>ezprice</title>
    <desc>Created with Sketch.</desc>
    <defs></defs>
    <g id="網頁mockup" stroke="none" stroke-width="1" fill="none" fill-rule="evenodd">
        <g id="about" transform="translate(-266.000000, -1113.000000)">
            <g id="Group-11" transform="translate(266.000000, 1064.000000)">
                <g id="ezprice" transform="translate(0.000000, 49.000000)">
                    <circle id="Oval-4" fill="#FF7F00" cx="30" cy="30" r="30"></circle>
                    <g id="logo" transform="translate(7.159091, 14.659091)" fill="#FFFFFF">
                        <g id="LOGO" transform="translate(0.000000, 0.064197)">
                            <path d="M0,8.45294971 L4.85144535,8.45294971 L4.85144535,9.41082967 L1.03860713,9.41082967 L1.03860713,11.1838383 L4.56354985,11.1838383 L4.56354985,12.1424729 L1.03860713,12.1424729 L1.03860713,14.1285394 L5.0537846,14.1285394 L5.0537846,15.086042 L0,15.086042 L0,8.45294971 Z M12.2055071,8.41381434 C12.0598386,8.62908117 8.32442806,14.141427 8.32442806,14.141427 L12.0795512,14.141427 L12.0795512,15.1027417 L6.30849424,15.1027417 C6.45723481,14.8867173 10.2558793,9.37576035 10.2558793,9.37576035 L6.62261588,9.37576035 L6.62261588,8.41381434 L12.2055071,8.41381434 Z M24.0729942,10.9453522 L24.0729942,15.1013276 L22.1511432,15.1013276 L22.1511432,8.76149867 L23.4634395,9.32371754 C23.8859804,8.71225875 24.5824498,8.16001412 25.4412281,8.16001412 C26.2271722,8.16001412 26.9398981,8.46113517 27.4932591,8.93510095 L26.3870491,10.4428525 C26.0808637,10.0265858 25.6735553,9.78215381 25.2516543,9.78215381 C24.5969142,9.78215381 24.0729942,10.2995517 24.0729942,10.9453522 Z M28.1320626,15.101315 L28.1320626,8.35266846 L30.0532736,8.35266846 L30.0532736,15.101315 L28.1320626,15.101315 Z M35.2283314,15.2734527 C33.2340303,15.2734527 31.4440234,13.79474 31.4440234,11.7271685 C31.4440234,9.65947066 33.2340303,8.18063176 35.2433079,8.18063176 C36.1168067,8.18063176 36.9321917,8.46761211 37.8201549,9.11328633 L37.1193334,10.1211896 C36.551252,9.76173818 35.9560338,9.58725211 35.2433079,9.58725211 C34.399122,9.58725211 33.4234761,10.2050237 33.4234761,11.7271685 C33.4234761,13.2489345 34.3845296,13.8668323 35.2433079,13.8668323 C35.9560338,13.8668323 36.6407268,13.6797206 37.2230166,13.3491819 L37.7503928,14.5088451 C37.007842,15.025738 36.2043614,15.2734527 35.2283314,15.2734527 Z M42.1604992,13.8668197 C42.9615478,13.8668197 43.5255331,13.6860208 44.2833163,13.2489219 L44.8525498,14.3215946 C44.0512452,14.9677738 43.1759544,15.2734401 42.0849769,15.2734401 C39.9616478,15.2734401 38.371583,13.7947274 38.371583,11.7271559 C38.371583,9.65945803 39.9899367,8.18061914 41.9985742,8.18061914 C44.0369088,8.18061914 45.4626165,9.71677835 45.4626165,11.8133888 L45.4626165,12.244175 L40.3089224,12.244175 C40.4356463,13.2744256 41.3074811,13.8668197 42.1604992,13.8668197 Z M42.0849769,9.58723948 C41.3570186,9.58723948 40.5271691,10.0470646 40.3089224,11.1524376 L43.5841589,11.1524376 C43.5113246,10.1189044 42.8128072,9.58723948 42.0849769,9.58723948 Z M12.804015,9.97555306 C13.7065707,8.8843207 15.118582,8.18069489 16.6907262,8.18069489 C19.194739,8.18069489 20.7959401,10.0183539 20.7959401,11.9138383 C20.7959401,13.7801575 19.2962461,15.2735158 17.3892436,15.2735158 C16.9963996,15.2735158 16.6323564,15.2161955 16.2974981,15.1158218 L16.2974981,18.2318249 L14.3759032,18.2318249 L14.3759032,10.1616547 C14.0848223,10.3488926 13.8229263,10.54964 13.5898311,10.7936932 L12.804015,9.97555306 Z M16.2974981,9.51585423 L16.2974981,13.9234582 C16.4576311,13.9814098 16.6615413,14.0103225 16.8508591,14.0103225 C17.6657321,14.0103225 18.8162314,13.3784102 18.8162314,11.9138383 C18.8162314,10.3916935 17.7822157,9.48744658 16.7634324,9.48744658 C16.6035555,9.48744658 16.4427826,9.50183979 16.2974981,9.51585423 Z M29.9400413,2.41516754 C30.4174959,2.88597692 30.4174959,3.65033197 29.9400413,4.12139386 C29.4625866,4.59232949 28.6873949,4.59232949 28.2100682,4.12164637 C27.7323576,3.65007946 27.7326136,2.88610318 28.2103242,2.41516754 C28.6876509,1.94435816 29.4622026,1.94385314 29.9400413,2.41516754 Z M27.8136657,4.51244719 C28.2909923,4.98325657 28.2912483,5.74761162 27.8135377,6.21867351 C27.336211,6.6897354 26.5611473,6.68948289 26.0839486,6.21867351 C25.605982,5.74710659 25.606366,4.98338283 26.0838206,4.51244719 C26.5614033,4.04151156 27.335827,4.04113279 27.8136657,4.51244719 Z M32.0302942,0.353391135 C32.5077488,0.824200513 32.5077488,1.58855556 32.0304222,2.05961745 C31.5528395,2.53055309 30.7777758,2.53055309 30.3004491,2.05986996 C29.8226105,1.58830305 29.8229945,0.824453025 30.3005771,0.353391135 C30.7781598,-0.117544499 31.5524555,-0.118049524 32.0302942,0.353391135 Z M30.3005515,4.51244719 C30.7780062,4.04163781 31.5528139,4.04151156 32.0303966,4.51269971 C32.5079792,4.98338283 32.5077232,5.74786413 32.0302686,6.21867351 C31.5526859,6.68998791 30.7781342,6.6897354 30.3006795,6.21867351 C29.8230969,5.74761162 29.8228409,4.98388785 30.3005515,4.51244719 Z M26.0838078,0.353517391 C26.5611345,-0.117291986 27.3361982,-0.117544499 27.8136529,0.353391135 C28.2913635,0.824453025 28.2913635,1.58906059 27.8139089,2.05986996 C27.3360702,2.53105811 26.5613905,2.53055309 26.0839358,2.05961745 C25.6064812,1.58855556 25.6059692,0.824705538 26.0838078,0.353517391 Z" id="Combined-Shape"></path>
                            <path d="M14.3993334,20.9379868 L14.3993334,24.0098086 L17.1918692,24.0098086 L17.1918692,24.922818 L14.3993334,24.922818 L14.3993334,29.3972789 L14.4663025,29.3798956 C15.3934926,29.1405855 16.3287111,28.8272999 17.2484601,28.4533658 L17.2484601,29.3945748 C16.0600512,29.8940549 15.2754154,30.2241444 13.9035266,30.5891937 C13.9025475,30.58958 13.6250758,30.6527393 13.4643107,30.5277727 C13.3875507,30.4678969 13.3485832,30.3705504 13.3485832,30.2392099 L13.3485832,20.9379868 L14.3993334,20.9379868 Z M19.1725508,20.9493052 L19.1725508,24.9474637 L19.2545979,24.8978247 C20.3386368,24.2384183 21.2726804,23.4816654 22.0367555,22.6495849 C22.1003958,22.732059 22.5687883,23.3397018 22.6177424,23.4034406 C21.8156789,24.2455648 20.6676081,25.1435087 19.1974195,26.073322 L19.1733341,26.0889669 L19.1496403,28.8359143 C19.1496403,29.4358312 19.4427773,29.740232 20.0208269,29.740232 L21.0312389,29.740232 C21.3770505,29.740232 21.5973438,29.5146355 21.6858527,29.0703956 C21.7663332,28.6661374 21.8366312,28.1079404 21.8959636,27.4166646 C22.00425,27.4494997 22.8196289,27.6984671 22.8922768,27.7208723 C22.8023971,28.8349485 22.6680671,29.616038 22.491245,30.0363275 C22.317556,30.4512089 21.9476591,30.6530483 21.3606019,30.6530483 L19.8277521,30.6530483 C19.2244422,30.6530483 18.7858137,30.5298201 18.5251822,30.2868402 C18.265334,30.0446329 18.1335497,29.5978821 18.1335497,28.9593357 L18.1335497,20.9493052 L19.1725508,20.9493052 Z M25.3621662,20.8123635 C25.4477379,20.8341891 26.1748037,21.0217356 26.2607671,21.0439476 C26.2233662,21.2069643 26.0937358,21.7599463 25.987995,22.0757429 L25.9856452,22.0840483 L25.9856452,30.850059 L25.0825405,30.850059 L25.0825405,23.8691198 L24.9795412,24.0796508 C24.8021316,24.4854543 24.421269,25.1898641 24.1998008,25.4620093 C24.1479095,25.3154102 23.8449817,24.4591862 23.8304913,24.4188183 C24.4837344,23.3991913 24.9846324,22.2177065 25.3621662,20.8123635 Z M29.0949139,29.2878607 C29.1370144,29.3452256 29.5151356,29.8655656 29.577601,29.9519027 C28.6786085,30.3633074 28.0050005,30.6636521 27.0265066,30.834781 C26.9947844,30.7718149 26.6746248,30.1398354 26.6223418,30.0374671 C27.7649298,29.8221074 28.4187603,29.5625168 29.0949139,29.2878607 Z M27.19812,29.1475195 L27.19812,25.0095221 L33.3344145,25.0095221 L33.3344145,29.1475195 L27.19812,29.1475195 Z M27.953775,26.1850193 L32.5677938,26.1850193 L32.5677938,25.631651 L27.953775,25.631651 L27.953775,26.1850193 Z M27.953775,27.3386908 L32.5677938,27.3386908 L32.5677938,26.7291165 L27.953775,26.7291165 L27.953775,27.3386908 Z M27.953775,28.5253906 L32.5677938,28.5253906 L32.5677938,27.8824018 L27.953775,27.8824018 L27.953775,28.5253906 Z M31.391173,29.2946595 C32.0661517,29.4285109 32.5862397,29.6002192 33.2383079,29.8163516 C33.2383079,29.8163516 33.7742571,29.9917297 33.8647242,30.0212813 C33.8324145,30.1072321 33.5925396,30.7451991 33.5616006,30.8276732 C33.4758331,30.7971559 32.7847974,30.5520514 32.7847974,30.5520514 C32.319538,30.378991 31.7896591,30.1831392 31.0524109,29.9635302 C31.098036,29.8729439 31.3598424,29.3562736 31.391173,29.2946595 Z M31.6488281,22.4228874 L33.7828338,22.4228874 L33.7828338,24.5005777 L26.692914,24.5005777 L26.692914,22.4228874 L28.8382771,22.4228874 L28.8382771,21.7233062 L27.1616982,21.7233062 L27.1616982,21.0231456 L33.3896347,21.0231456 L33.3896347,21.7233062 L31.6488281,21.7233062 L31.6488281,22.4228874 Z M31.6486322,23.8672463 L32.948069,23.8672463 L32.948069,23.0558325 L31.6486322,23.0558325 L31.6486322,23.8672463 Z M29.5941279,22.4228874 L30.9043346,22.4228874 L30.9043346,21.7234993 L29.5941279,21.7234993 L29.5941279,22.4228874 Z M29.5941279,23.8672463 L30.9043346,23.8672463 L30.9043346,23.0558325 L29.5941279,23.0558325 L29.5941279,23.8672463 Z M27.5280704,23.8672463 L28.8382771,23.8672463 L28.8382771,23.0558325 L27.5280704,23.0558325 L27.5280704,23.8672463 Z M38.7576246,27.8170019 C38.9080115,28.3850495 38.9890794,28.8841433 39.072693,29.4104709 C39.072693,29.4104709 39.1561107,29.9159386 39.1694262,29.9970606 C39.0926662,30.0181137 38.5128542,30.1759154 38.4137712,30.2031493 C38.318017,29.3150559 38.2392989,28.6015681 38.1100602,27.9328906 C38.1942611,27.917825 38.6775357,27.8312949 38.7576246,27.8170019 Z M35.8134877,28.0593637 C35.8976887,28.0659307 36.459094,28.1109342 36.5477988,28.1184669 C36.4522404,29.268855 36.2957832,30.15521 36.0827351,30.7584104 C35.9967718,30.7331081 35.3646768,30.5455616 35.2777344,30.5202592 C35.5495274,29.7374314 35.7296784,28.9101796 35.8134877,28.0593637 Z M37.6400815,28.0139161 C37.74406,28.5657392 37.8006509,29.2237936 37.8006509,29.8524895 C37.8006509,30.0771204 37.7918391,30.2957636 37.7773487,30.5062947 C37.693931,30.5101576 36.9997623,30.5414476 36.8995044,30.5462762 C36.9047914,30.4665062 36.9188902,30.2702681 36.9188902,30.2702681 L36.9529622,29.5789923 L36.957466,29.1905722 C36.9600116,29.0404964 36.962753,28.8825015 36.962753,28.7239272 C36.962753,28.4969786 36.9558995,28.2711889 36.9363178,28.0625893 C37.0234561,28.0566017 37.5601885,28.019131 37.6400815,28.0139161 Z M35.7314603,23.4202444 C36.266822,22.4877271 36.7702656,21.6063939 37.0322678,20.7644628 C37.1127483,20.7845502 37.8539129,20.9693926 37.9571081,20.9950812 C37.6120798,21.8491806 37.053416,22.8525832 36.4495186,23.6941279 L36.3897946,23.7775678 L36.4935772,23.7775678 C36.8380181,23.7775678 37.4591473,23.7538106 37.7276114,23.7095797 L37.7516968,23.7059099 L37.9255816,23.432799 C38.1067117,23.156984 38.3299422,22.8127947 38.5151844,22.3511716 C38.5927277,22.3753151 39.1974083,22.563441 39.2919876,22.5929926 C38.5173384,24.4103198 37.5167173,25.7277806 36.810408,26.5146646 L36.7256195,26.6087275 L36.8530959,26.6029331 C37.4703088,26.5726089 37.8263028,26.5303095 38.2126483,26.4395301 L38.2649312,26.4269755 L38.252399,26.3750187 C38.2510283,26.3705763 38.1425461,25.9375391 37.9952922,25.574035 C38.0879133,25.5489258 38.5978189,25.410632 38.6741873,25.3897721 C38.9117124,25.9995395 39.0425177,26.3526136 39.227564,27.0749862 C38.9285526,27.1423948 37.2870248,27.4945031 35.4692623,27.5286903 C35.4620171,27.4427395 35.4042513,26.7734826 35.4005308,26.728286 C36.0138274,26.1793601 36.8720901,25.2385374 37.3651555,24.5733365 L37.4327121,24.4821708 L35.9069117,24.5746885 C35.9069117,24.5746885 35.6866184,24.5858911 35.6112291,24.5897541 C35.6033965,24.5010992 35.5403436,23.788384 35.5379938,23.7590256 C35.55268,23.7325643 35.7314603,23.4202444 35.7314603,23.4202444 Z M39.5780556,21.1014863 L45.385183,21.1014863 L45.385183,29.4692264 C45.385183,29.9474603 45.3162557,30.2754252 45.1811424,30.4442363 C45.0481832,30.6093776 44.7605291,30.6926243 44.3264044,30.6926243 L43.2762417,30.6926243 C43.2568559,30.6279198 43.038325,29.9020705 43.0024906,29.7830915 C43.1348624,29.7896586 44.0851588,29.8354346 44.0851588,29.8354346 C44.4603427,29.8354346 44.5384734,29.6179502 44.5384734,29.4358119 L44.5384734,26.7512512 L42.0700135,26.7512512 L42.0700135,27.8344238 C42.0700135,28.2945018 42.3341696,28.3906894 42.555442,28.3906894 L44.0001745,28.3906894 L44.0001745,29.1252303 L42.5098168,29.1252303 C42.0498444,29.1252303 41.7257685,29.0396658 41.5477715,28.8714341 C41.3709494,28.7035887 41.2806781,28.3696363 41.2806781,27.8792341 L41.2806781,26.7512512 L40.4468924,26.7512512 C40.4468924,26.7512512 40.4361225,30.7468988 40.4353392,30.8500397 L39.5780556,30.8500397 L39.5780556,21.1014863 Z M44.5275077,23.9121724 L44.5275077,21.8354478 L40.4353392,21.8354478 L40.4353392,23.9121724 L41.4116792,23.9121724 L41.3920975,23.8445707 C41.2405358,23.3248101 41.0605806,22.848894 40.8600647,22.422617 C40.9689386,22.4050405 41.5847808,22.3065352 41.6574286,22.29456 C41.8397335,22.7397656 42.0173389,23.2682178 42.1855451,23.8731566 L42.1967066,23.9121724 L42.7489085,23.9121724 L42.7628115,23.8808825 C42.9478578,23.4727613 43.1019652,22.9315613 43.2220006,22.2750521 C43.3095305,22.2918559 43.9563117,22.4166294 44.046583,22.4340127 C43.9214564,23.0354748 43.7742025,23.5081073 43.6085419,23.8356859 L43.5693787,23.9121724 L44.5275077,23.9121724 Z M42.9165272,26.0172898 L44.5275077,26.0172898 L44.5275077,24.6461339 L42.9165272,24.6461339 L42.9165272,26.0172898 Z M40.4355351,26.0172898 L42.1289542,26.0172898 L42.1289542,24.6461339 L40.4355351,24.6461339 L40.4355351,26.0172898 Z" id="Combined-Shape"></path>
                        </g>
                    </g>
                </g>
            </g>
        </g>
    </g>
</svg>