<?xml version="1.0" encoding="UTF-8" standalone="no"?>
<svg width="60px" height="60px" viewBox="0 0 60 60" version="1.1" xmlns="http://www.w3.org/2000/svg" xmlns:xlink="http://www.w3.org/1999/xlink">
    <!-- Generator: Sketch 50.2 (55047) - http://www.bohemiancoding.com/sketch -->
    <title>genki</title>
    <desc>Created with Sketch.</desc>
    <defs></defs>
    <g id="網頁mockup" stroke="none" stroke-width="1" fill="none" fill-rule="evenodd">
        <g id="about" transform="translate(-266.000000, -1199.000000)">
            <g id="Group-11" transform="translate(266.000000, 1064.000000)">
                <g id="genki" transform="translate(0.000000, 135.000000)">
                    <circle id="Oval-3" fill="#2EA9DF" cx="30" cy="30" r="30"></circle>
                    <g id="logo" transform="translate(5.581395, 20.581395)">
                        <g id="Group">
                            <polygon id="Fill-12" fill="#FBC600" points="44.2281814 0.58607907 41.5141349 12.1061256 40.0418558 12.1061256 41.1970186 7.19603256 37.4420884 12.1061256 32.8022279 12.1061256 37.5801349 6.43352093 35.0324605 0.58607907 39.9910651 0.58607907 41.6199488 5.40142791 42.7546 0.58607907"></polygon>
                            <g id="Group-21" transform="translate(0.000000, 0.042065)" fill="#FFFFFF">
                                <path d="M7.4626186,7.94174419 L5.67908372,7.94174419 L6.31722326,5.23355814 L12.6149442,5.23355814 C12.5703395,5.47090698 12.5368047,5.64509302 12.5149907,5.76067442 C12.4935023,5.8765814 12.4716884,5.97816279 12.4505256,6.06997674 C12.2945721,6.73090698 12.0884791,7.3325814 11.8358279,7.87760465 C11.5851302,8.42327907 11.2885256,8.90611628 10.9495953,9.32513953 C10.1388977,10.311 9.20871163,11.067 8.16815349,11.5902093 C7.12629302,12.1117907 6.02029302,12.3719302 4.85406047,12.3719302 C3.99289767,12.3719302 3.22517674,12.2267209 2.55480465,11.9333721 C1.88410698,11.6436047 1.32996744,11.2141628 0.891734884,10.6473256 C0.461967442,10.0798372 0.183595349,9.4325814 0.0654093023,8.70523256 C-0.0518,7.97430233 -0.0120790698,7.18216279 0.189455814,6.32816279 C0.392618605,5.46732558 0.726339535,4.66997674 1.19322326,3.93969767 C1.65782791,3.20648837 2.23768837,2.5637907 2.92889767,2.00834884 C3.62433953,1.44606977 4.3826186,1.01760465 5.19266512,0.72327907 C6.00336279,0.43155814 6.84043256,0.283744186 7.70094419,0.283744186 C8.87010698,0.283744186 9.84587442,0.541604651 10.6324791,1.05960465 C11.4197349,1.57532558 11.9829907,2.33360465 12.3251767,3.3302093 L8.35113023,4.69927907 C8.23489767,4.38053488 8.06006047,4.14155814 7.82596744,3.98234884 C7.59317674,3.82444186 7.30275814,3.74565116 6.95438605,3.74565116 C6.34880465,3.74565116 5.80768837,3.98006977 5.33852558,4.44760465 C4.86708372,4.91546512 4.53922326,5.54025581 4.35364186,6.32816279 C4.16187442,7.14146512 4.1937814,7.77309302 4.4526186,8.22174419 C4.71047907,8.66974419 5.17117674,8.89276744 5.83536279,8.89276744 C6.23192093,8.89276744 6.57247907,8.8094186 6.85638605,8.64011628 C7.14322326,8.47309302 7.34443256,8.24030233 7.4626186,7.94174419" id="Fill-13"></path>
                                <polygon id="Fill-15" points="11.7153628 12.0649395 14.4290837 0.543916279 22.0506186 0.543916279 21.3148047 3.66786977 17.7115953 3.66786977 17.4495023 4.77777674 20.7186651 4.77777674 20.0228977 7.73047442 16.7547116 7.73047442 16.4691767 8.94131163 20.1655023 8.94131163 19.430014 12.0649395"></polygon>
                                <path d="M20.2719023,12.0649395 L22.9862744,0.543916279 L27.0039488,0.543916279 L29.1260884,6.5723814 C29.140414,6.3063814 29.1791581,6.00749767 29.2374372,5.68256744 C29.2950651,5.35731163 29.3868791,4.93307907 29.5122279,4.40726512 L30.4209256,0.543916279 L34.3669721,0.543916279 L31.6532512,12.0649395 L27.6059488,12.0649395 L25.5098558,6.08368372 C25.4919488,6.34154419 25.4564605,6.61763721 25.4072977,6.91554419 C25.3578093,7.21084651 25.2907395,7.54098605 25.2051116,7.90954419 L24.226414,12.0649395 L20.2719023,12.0649395" id="Fill-17"></path>
                                <polygon id="Fill-19" points="41.9602465 12.0649395 44.6733163 0.543916279 48.8371767 0.543916279 46.1234558 12.0649395"></polygon>
                            </g>
                        </g>
                        <text id="Always-Read-To-Serve" font-family="Helvetica-Bold, Helvetica" font-size="3.25581395" font-weight="bold" fill="#FFFFFF">
                            <tspan x="0" y="19.3023256">ALWAYS READ TO SERVE.</tspan>
                        </text>
                    </g>
                </g>
            </g>
        </g>
    </g>
</svg>