<?xml version="1.0" encoding="UTF-8" standalone="no"?>
<svg width="60px" height="60px" viewBox="0 0 60 60" version="1.1" xmlns="http://www.w3.org/2000/svg" xmlns:xlink="http://www.w3.org/1999/xlink">
    <!-- Generator: Sketch 50.2 (55047) - http://www.bohemiancoding.com/sketch -->
    <title>info-icon</title>
    <desc>Created with Sketch.</desc>
    <defs></defs>
    <g id="作品標籤一覽" stroke="none" stroke-width="1" fill="none" fill-rule="evenodd">
        <g id="icon" transform="translate(-25.000000, -92.000000)">
            <g id="info-icon" transform="translate(25.000000, 92.000000)">
                <rect id="Rectangle-3" x="0" y="0" width="60" height="60"></rect>
                <g id="Group" transform="translate(9.000000, 5.000000)">
                    <polygon id="Fill-1" fill="#FFFFFF" points="37.1 45.8333333 0.7 45.8333333 0.7 0.694444444 27.6043779 0.694444444 37.1 9.25528494"></polygon>
                    <polygon id="Fill-3" fill="#D9E8F7" points="28 0.694444444 28 9.02777778 37.8 9.02777778"></polygon>
                    <polygon id="Fill-4" fill="#F8E71C" points="4.9 19.4444444 14.7 19.4444444 14.7 6.94444444 4.9 6.94444444"></polygon>
                    <g id="Group-21">
                        <path d="M41.2384528,39.8727539 C41.2384528,45.0607422 36.9728774,49.2660156 31.7104953,49.2660156 C26.4485094,49.2660156 22.1825377,45.0607422 22.1825377,39.8727539 C22.1825377,34.6851562 26.4485094,30.4793945 31.7104953,30.4793945 C36.9728774,30.4793945 41.2384528,34.6851562 41.2384528,39.8727539" id="Fill-5" fill="#A6CEFD"></path>
                        <path d="M31.7104953,48.5321289 C26.8671226,48.5321289 22.9269481,44.6475586 22.9269481,39.8727539 C22.9269481,35.0978516 26.8671226,31.2133789 31.7104953,31.2133789 C36.5538679,31.2133789 40.4940425,35.0978516 40.4940425,39.8727539 C40.4940425,44.6475586 36.5538679,48.5321289 31.7104953,48.5321289 Z M28.4849151,8.61054687 L28.4849151,2.40214844 L35.3550849,8.61054687 L28.4849151,8.61054687 Z M38.0129717,31.8813477 C40.4270802,33.7360352 41.9829623,36.6283203 41.9829623,39.8727539 C41.9829623,45.4570312 37.3749481,50 31.7104953,50 C28.7960519,50 26.1613443,48.7972656 24.2901651,46.8689453 L0.744509434,46.8689453 C0.333127358,46.8689453 0,46.5404297 0,46.1349609 L0,22.309082 C0,21.9040039 0.333127358,21.5751953 0.744509434,21.5751953 C1.15539623,21.5751953 1.48891981,21.9040039 1.48891981,22.309082 L1.48891981,45.4009766 L23.1080236,45.4009766 C22.0528726,43.8106445 21.4380283,41.9113281 21.4380283,39.8727539 C21.4380283,34.2887695 26.0464387,29.7455078 31.7104953,29.7455078 C33.4490377,29.7455078 35.0873349,30.1742187 36.5240519,30.9288086 L36.5240519,10.078418 L27.7405047,10.078418 C27.3292217,10.078418 26.9959953,9.75 26.9959953,9.34453125 L26.9959953,1.46787109 L1.48891981,1.46787109 L1.48891981,18.884668 C1.48891981,19.2897461 1.15539623,19.6182617 0.744509434,19.6182617 C0.333127358,19.6182617 0,19.2897461 0,18.884668 L0,0.733984375 C0,0.328417969 0.333127358,0 0.744509434,0 L27.7405047,0 C27.9242547,0 28.1081038,0.0706054687 28.2435142,0.193066406 L37.7714717,8.80351562 C37.9232264,8.94052734 38.0129717,9.14150391 38.0129717,9.34453125 L38.0129717,31.8813477 Z M4.7145,24.1683594 C4.30311792,24.1683594 3.96999057,23.8399414 3.96999057,23.4344727 C3.96999057,23.0289062 4.30311792,22.7004883 4.7145,22.7004883 L25.3584906,22.7004883 C25.7697736,22.7004883 26.103,23.0289062 26.103,23.4344727 C26.103,23.8399414 25.7697736,24.1683594 25.3584906,24.1683594 L4.7145,24.1683594 Z M17.4185094,7.73007813 C17.0071274,7.73007813 16.674,7.40166016 16.674,6.99619141 C16.674,6.590625 17.0071274,6.26220703 17.4185094,6.26220703 L25.3584906,6.26220703 C25.7697736,6.26220703 26.103,6.590625 26.103,6.99619141 C26.103,7.40166016 25.7697736,7.73007813 25.3584906,7.73007813 L17.4185094,7.73007813 Z M17.4185094,13.2095703 C17.0071274,13.2095703 16.674,12.8810547 16.674,12.4755859 C16.674,12.0701172 17.0071274,11.7416016 17.4185094,11.7416016 L25.3584906,11.7416016 C25.7697736,11.7416016 26.103,12.0701172 26.103,12.4755859 C26.103,12.8810547 25.7697736,13.2095703 25.3584906,13.2095703 L17.4185094,13.2095703 Z M17.4185094,18.6889648 C17.0071274,18.6889648 16.674,18.3605469 16.674,17.9549805 C16.674,17.5495117 17.0071274,17.2210937 17.4185094,17.2210937 L25.3584906,17.2210937 C25.7697736,17.2210937 26.103,17.5495117 26.103,17.9549805 C26.103,18.3605469 25.7697736,18.6889648 25.3584906,18.6889648 L17.4185094,18.6889648 Z M4.7145,29.6478516 C4.30311792,29.6478516 3.96999057,29.3193359 3.96999057,28.9138672 C3.96999057,28.5083984 4.30311792,28.1798828 4.7145,28.1798828 L25.3584906,28.1798828 C25.7697736,28.1798828 26.103,28.5083984 26.103,28.9138672 C26.103,29.3193359 25.7697736,29.6478516 25.3584906,29.6478516 L4.7145,29.6478516 Z M4.7145,35.1272461 C4.30311792,35.1272461 3.96999057,34.7988281 3.96999057,34.3933594 C3.96999057,33.987793 4.30311792,33.659375 4.7145,33.659375 L20.5944623,33.659375 C21.0058443,33.659375 21.3389717,33.987793 21.3389717,34.3933594 C21.3389717,34.7988281 21.0058443,35.1272461 20.5944623,35.1272461 L4.7145,35.1272461 Z M4.7145,40.6066406 C4.30311792,40.6066406 3.96999057,40.2782227 3.96999057,39.8727539 C3.96999057,39.4672852 4.30311792,39.1387695 4.7145,39.1387695 L19.0064858,39.1387695 C19.4177689,39.1387695 19.7509953,39.4672852 19.7509953,39.8727539 C19.7509953,40.2782227 19.4177689,40.6066406 19.0064858,40.6066406 L4.7145,40.6066406 Z M5.45891038,18.7866211 L13.4980472,18.7866211 L13.4980472,7.73007813 L5.45891038,7.73007813 L5.45891038,18.7866211 Z M4.7145,20.2544922 L14.2424575,20.2544922 C14.6534434,20.2544922 14.986967,19.9260742 14.986967,19.5206055 L14.986967,6.99619141 C14.986967,6.590625 14.6534434,6.26220703 14.2424575,6.26220703 L4.7145,6.26220703 C4.30311792,6.26220703 3.96999057,6.590625 3.96999057,6.99619141 L3.96999057,19.5206055 C3.96999057,19.9260742 4.30311792,20.2544922 4.7145,20.2544922 Z" id="Fill-20" fill="#185A9D"></path>
                        <polygon id="Path" fill="#FFFFFF" points="30.1225189 46.1349609 33.2984717 46.1349609 33.2984717 39.0899414 30.1225189 39.0899414"></polygon>
                        <path d="M33.2984717,35.1760742 C33.2984717,36.040918 32.5876415,36.7416016 31.7104953,36.7416016 C30.8333491,36.7416016 30.1225189,36.040918 30.1225189,35.1760742 C30.1225189,34.3117188 30.8333491,33.6105469 31.7104953,33.6105469 C32.5876415,33.6105469 33.2984717,34.3117188 33.2984717,35.1760742" id="Path" fill="#FFFFFF"></path>
                    </g>
                </g>
            </g>
        </g>
    </g>
</svg>