<?xml version="1.0" encoding="UTF-8" standalone="no"?>
<svg width="60px" height="60px" viewBox="0 0 60 60" version="1.1" xmlns="http://www.w3.org/2000/svg" xmlns:xlink="http://www.w3.org/1999/xlink">
    <!-- Generator: Sketch 50.2 (55047) - http://www.bohemiancoding.com/sketch -->
    <title>interest-icon</title>
    <desc>Created with Sketch.</desc>
    <defs></defs>
    <g id="作品標籤一覽" stroke="none" stroke-width="1" fill="none" fill-rule="evenodd">
        <g id="icon" transform="translate(-233.000000, -92.000000)">
            <g id="interest-icon" transform="translate(233.000000, 92.000000)">
                <rect id="Rectangle-3-Copy-3" x="0" y="0" width="60" height="60"></rect>
                <g id="Group" transform="translate(5.000000, 8.000000)">
                    <path d="M39.716313,41.6754586 C40.7519894,41.6754586 41.6352785,42.3416716 41.9636605,43.2693639 L33.135809,43.2693639 C33.4864721,42.3509911 34.4169761,41.6754586 35.4769231,41.6754586 L39.716313,41.6754586 Z M14.3904509,41.6754586 C15.4259947,41.6754586 16.3094164,42.3416716 16.6377984,43.2693639 L7.90371353,43.2693639 C8.23209549,42.3416716 9.11538462,41.6754586 10.151061,41.6754586 L14.3904509,41.6754586 Z M4.89681698,3.90900888 L44.970557,3.90900888 L44.7628647,4.53514793 C44.5944297,5.04173077 43.9567639,5.50304734 43.4251989,5.50304734 L14.3950928,5.50304734 C13.955305,5.50304734 13.5993369,5.86025148 13.5993369,6.30186391 L12.0078249,6.30186391 C12.0078249,5.86025148 11.6514589,5.50304734 11.212069,5.50304734 L6.44217507,5.50304734 C5.91061008,5.50304734 5.2729443,5.04173077 5.10450928,4.53514793 L4.89681698,3.90900888 Z" id="Combined-Shape" fill="#8593A1"></path>
                    <polygon id="Fill-5" fill="#F8E71C" points="22.818435 16.1407544 27.048939 16.1407544 27.048939 11.3557101 22.818435 11.3557101"></polygon>
                    <path d="M15.1862069,19.3325592 L15.1862069,17.7385207 L34.6811671,17.7385207 L34.6811671,19.3325592 L15.1862069,19.3325592 Z M10.946817,40.0778254 L10.946817,11.3557101 L14.3904509,11.3557101 L14.3904509,12.9533432 C13.951061,12.9533432 13.594695,13.3106805 13.594695,13.7521598 L13.594695,40.0778254 L10.946817,40.0778254 Z M35.4769231,12.9533432 L35.4769231,11.3557101 L38.920557,11.3557101 L38.920557,40.0778254 L36.272679,40.0778254 L36.272679,13.7521598 C36.272679,13.311213 35.916313,12.9533432 35.4769231,12.9533432 Z M11.212069,7.10068047 C11.6514589,7.10068047 12.0072944,6.7433432 12.0078249,6.30186391 L13.5993369,6.30186391 C13.5993369,6.7433432 13.9558355,7.10068047 14.3950928,7.10068047 L42.629443,7.10068047 L42.629443,8.96139053 C42.629443,9.40087278 42.2729443,9.75807692 41.8352785,9.75807692 L8.03209549,9.75807692 C7.59442971,9.75807692 7.23793103,9.40034024 7.23793103,8.96139053 L7.23793103,7.10068047 L11.212069,7.10068047 Z M7.23793103,19.3325592 L7.23793103,17.7385207 L9.35530504,17.7385207 L9.35530504,19.3325592 L7.23793103,19.3325592 Z M40.512069,19.3325592 L40.512069,17.7385207 L42.629443,17.7385207 L42.629443,19.3325592 L40.512069,19.3325592 Z" id="Combined-Shape" fill="#F7909D"></path>
                    <path d="M38.920557,40.0778254 L36.272679,40.0778254 L36.272679,13.7521598 C36.272679,13.3106805 35.916313,12.9533432 35.4769231,12.9533432 C35.0376658,12.9533432 34.6811671,13.3106805 34.6811671,13.7521598 L34.6811671,16.1408876 L28.6404509,16.1408876 L28.6404509,11.3557101 L38.9210875,11.3557101 L38.9210875,40.0778254 L38.920557,40.0778254 Z M15.1862069,19.3325592 L34.6811671,19.3325592 L34.6811671,17.7385207 L15.1862069,17.7385207 L15.1862069,19.3325592 Z M21.2269231,11.3557101 L21.2269231,16.1408876 L15.1862069,16.1408876 L15.1862069,13.7521598 C15.1862069,13.3106805 14.8302387,12.9533432 14.3904509,12.9533432 C13.951061,12.9533432 13.594695,13.3106805 13.594695,13.7521598 L13.594695,40.0778254 L10.946817,40.0778254 L10.946817,11.3557101 L21.2269231,11.3557101 Z M22.818435,16.1408876 L27.048939,16.1408876 L27.048939,11.3557101 L22.818435,11.3557101 L22.818435,16.1408876 Z M7.23793103,19.3325592 L9.35530504,19.3325592 L9.35530504,17.7385207 L7.23793103,17.7385207 L7.23793103,19.3325592 Z M7.90371353,43.2693639 C8.23209549,42.3416716 9.11538462,41.6754586 10.151061,41.6754586 L14.3904509,41.6754586 C15.4259947,41.6754586 16.3094164,42.3416716 16.6377984,43.2693639 L7.90371353,43.2693639 Z M33.135809,43.2693639 C33.4864721,42.3509911 34.4169761,41.6754586 35.4769231,41.6754586 L39.716313,41.6754586 C40.7519894,41.6754586 41.6352785,42.3416716 41.9636605,43.2693639 L33.135809,43.2693639 Z M40.512069,19.3325592 L42.629443,19.3325592 L42.629443,17.7385207 L40.512069,17.7385207 L40.512069,19.3325592 Z M43.4251989,5.50304734 L14.3950928,5.50304734 C13.955305,5.50304734 13.5993369,5.86078402 13.5993369,6.30186391 C13.5993369,6.7433432 13.9558355,7.10068047 14.3950928,7.10068047 L42.629443,7.10068047 L42.629443,8.96139053 C42.629443,9.40034024 42.2729443,9.75807692 41.8352785,9.75807692 L8.03209549,9.75807692 C7.59442971,9.75807692 7.23793103,9.40087278 7.23793103,8.96139053 L7.23793103,7.10068047 L11.212069,7.10068047 C11.6514589,7.10068047 12.0072944,6.7433432 12.0078249,6.30186391 C12.0078249,5.86078402 11.6514589,5.50304734 11.212069,5.50304734 L6.44217507,5.50304734 C5.91061008,5.50304734 5.2729443,5.04173077 5.10450928,4.53514793 L4.89681698,3.90900888 L44.970557,3.90900888 L44.7628647,4.53514793 C44.5944297,5.04173077 43.9567639,5.50304734 43.4251989,5.50304734 Z M49.338992,0.230591716 C48.9250663,0.0824112426 48.4696286,0.299289941 48.3220159,0.714807692 C47.9831565,1.66965976 47.0795756,2.31137574 46.0745358,2.31137574 L3.7928382,2.31137574 C2.78779841,2.31137574 1.88474801,1.67005917 1.54535809,0.715340237 C1.39774536,0.299689349 0.942307692,0.0824112426 0.528381963,0.23112426 C0.114456233,0.379304734 -0.101061008,0.836494083 0.0466843501,1.25201183 C0.54403183,2.65247041 1.77228117,3.64739645 3.20424403,3.86427515 L3.59482759,5.04066568 C3.89376658,5.94133136 4.72122016,6.68822485 5.6464191,6.97366864 L5.6464191,8.96085799 C5.6464191,10.2813018 6.7168435,11.3557101 8.03209549,11.3557101 L9.35477454,11.3557101 L9.35477454,16.1408876 L6.44217507,16.1408876 C6.00291777,16.1408876 5.6464191,16.4986243 5.6464191,16.9397041 L5.6464191,20.1313757 C5.6464191,20.5723225 6.00291777,20.9301923 6.44217507,20.9301923 L9.35530504,20.9301923 L9.35530504,40.1583728 C7.54310345,40.5291568 6.17533156,42.1414349 6.17533156,44.0681805 C6.17533156,44.5092604 6.53183024,44.866997 6.97108753,44.866997 L17.5702918,44.866997 C18.0096817,44.866997 18.3660477,44.5092604 18.3660477,44.0681805 C18.3660477,42.1414349 16.9984085,40.5291568 15.1862069,40.1583728 L15.1862069,20.9301923 L34.6811671,20.9301923 L34.6811671,40.1578402 C32.8342175,40.531287 31.3956233,42.1705917 31.3956233,44.0681805 C31.3956233,44.5092604 31.7519894,44.866997 32.1913793,44.866997 L42.8962865,44.866997 C43.3355438,44.866997 43.6920424,44.5092604 43.6920424,44.0681805 C43.6920424,42.1414349 42.3242706,40.5291568 40.512069,40.1583728 L40.512069,20.9301923 L43.4251989,20.9301923 C43.8644562,20.9301923 44.2209549,20.5723225 44.2209549,20.1313757 L44.2209549,16.9397041 C44.2209549,16.4986243 43.8644562,16.1408876 43.4251989,16.1408876 L40.512069,16.1408876 L40.512069,11.3557101 L41.8352785,11.3557101 C43.1505305,11.3557101 44.2209549,10.2813018 44.2209549,8.96085799 L44.2209549,6.97366864 C45.1456233,6.68822485 45.9730769,5.94133136 46.2725464,5.04066568 L46.66313,3.86427515 C48.0950928,3.64739645 49.3238727,2.65193787 49.8212202,1.25094675 C49.9689655,0.835428994 49.7529178,0.378239645 49.338992,0.230591716 Z" id="Fill-16" fill="#185A9D"></path>
                </g>
            </g>
        </g>
    </g>
</svg>