<?xml version="1.0" encoding="UTF-8" standalone="no"?>
<svg width="56px" height="56px" viewBox="0 0 56 56" version="1.1" xmlns="http://www.w3.org/2000/svg" xmlns:xlink="http://www.w3.org/1999/xlink">
    <!-- Generator: Sketch 50.2 (55047) - http://www.bohemiancoding.com/sketch -->
    <title>white-logo</title>
    <desc>Created with Sketch.</desc>
    <defs></defs>
    <g id="Page-1" stroke="none" stroke-width="1" fill="none" fill-rule="evenodd">
        <g id="homepage" transform="translate(-88.000000, -86.000000)" fill="#FFFFFF">
            <path d="M116.015826,86 C131.483921,86 144,98.5510635 144,113.982508 C144,123.015142 139.76689,131.029897 133.181496,136.149279 L133.181496,124.479488 L133.204819,124.479488 C133.204819,124.479488 133.897843,122.580336 134.036115,122.11721 C134.209371,121.644087 134.635847,122.543686 135.453815,122.405414 C136.29344,122.313788 139.443701,119.213506 139.588636,118.728722 C139.763558,118.243939 139.736903,117.574238 139.818533,117.30769 C139.926818,117.031147 142.042541,114.607229 141.672706,114.319024 C141.26622,113.982508 139.75856,116.394764 139.227131,116.962844 C138.677376,117.482612 136.403391,118.024037 134.407616,118.024037 C132.365194,118.024037 130.109534,117.517596 130.109534,117.517596 L130.109534,113.867559 C130.109534,113.867559 132.022014,113.71596 133.103198,113.404433 C134.202707,113.094571 135.836978,108.798156 135.861966,108.406664 C135.883623,108.060152 137.419604,106.605801 137.762784,106.086033 C138.077644,105.519619 137.431266,105.72786 137.431266,105.72786 L135.455481,107.908553 C132.731697,108.91477 130.284456,108.66155 128.943388,108.295047 C127.465715,107.855243 124.165521,106.412554 123.330894,105.577927 C122.51126,104.693321 122.679518,101.079935 122.679518,101.079935 C122.679518,100.167009 121.911528,99.838822 122.001487,101.084932 C122.073122,102.331043 121.743269,104.698319 121.225167,105.45798 C120.713729,106.207645 118.667976,107.170549 116.892102,108.278388 C115.099569,109.341246 111.714413,108.509951 110.953086,108.291715 C110.201755,108.083475 108.867351,106.97397 108.445872,106.777391 C107.996073,106.547494 108.156002,107.088919 108.156002,107.088919 L109.97519,108.764837 C109.97519,108.764837 109.895225,109.711081 110.123457,110.104239 C110.351688,110.530715 111.369567,112.123338 112.022609,112.781377 C112.685646,113.476067 115.964183,113.902544 115.964183,113.902544 L115.964183,117.620884 C115.964183,117.620884 111.434538,118.983609 109.297159,118.728722 C107.166444,118.475502 105.68877,116.39643 105.388904,116.108225 C105.07571,115.808359 104.567604,116.121553 104.835817,116.376439 C105.112361,116.629659 106.798275,118.363885 106.798275,118.363885 L106.901562,119.418414 C107.3397,120.29469 109.886896,122.232158 110.434984,122.37043 C110.978075,122.463722 111.537825,121.97394 111.537825,121.97394 L113.17043,124.479488 L113.17043,136.948922 L114.303257,136.948922 L114.303257,124.479488 L115.387773,124.479488 L115.387773,136.130953 L116.242392,136.130953 L116.242392,124.479488 L122.074788,124.479488 L122.074788,136.948922 L123.162636,136.948922 L123.162636,124.479488 L124.013922,124.479488 L124.013922,136.130953 L124.821895,136.130953 L124.821895,124.479488 L130.109534,124.479488 L130.109534,136.130953 L130.955823,136.130953 L130.955823,124.479488 L132.050335,124.479488 L132.050335,136.948922 L132.052001,136.948922 C127.497367,140.119173 121.994824,142 116.015826,142 C100.549398,142 88,129.460598 88,113.982508 C88,98.5510635 100.549398,86 116.015826,86 Z M130.387744,103.926997 C131.142407,103.926997 131.785453,103.282285 131.785453,102.529288 C131.785453,101.766295 131.142407,101.131578 130.387744,101.131578 C129.624751,101.131578 129.006693,101.766295 129.006693,102.529288 C129.006693,103.282285 129.624751,103.926997 130.387744,103.926997 Z M126.497813,95.0243046 C127.260806,95.0243046 127.895523,94.4245724 127.895523,93.6265953 C127.895523,92.8619366 127.260806,92.2655362 126.497813,92.2655362 C125.744816,92.2655362 125.125093,92.8619366 125.125093,93.6265953 C125.125093,94.4245724 125.744816,95.0243046 126.497813,95.0243046 Z M118.724617,97.8297189 C119.48761,97.8297189 120.122326,97.1850067 120.122326,96.422014 C120.122326,95.6690168 119.48761,95.0243046 118.724617,95.0243046 C117.973286,95.0243046 117.328574,95.6690168 117.328574,96.422014 C117.328574,97.1850067 117.973286,97.8297189 118.724617,97.8297189 Z M115.36445,104.388458 C115.767604,104.388458 116.077465,104.043611 116.077465,103.677108 C116.077465,103.270623 115.767604,102.962427 115.36445,102.962427 C114.994615,102.962427 114.649769,103.270623 114.649769,103.677108 C114.649769,104.043611 114.994615,104.388458 115.36445,104.388458 Z M112.364123,91.1443701 C113.11712,91.1443701 113.741841,90.541306 113.741841,89.7466607 C113.741841,88.983668 113.11712,88.3856017 112.364123,88.3856017 C111.60113,88.3856017 110.956418,88.983668 110.956418,89.7466607 C110.956418,90.541306 111.60113,91.1443701 112.364123,91.1443701 Z M107.869463,101.859586 C108.274282,101.859586 108.582478,101.563052 108.582478,101.146571 C108.582478,100.778402 108.274282,100.433556 107.869463,100.433556 C107.501294,100.433556 107.158114,100.778402 107.158114,101.146571 C107.158114,101.563052 107.501294,101.859586 107.869463,101.859586 Z M103.196549,95.3008478 C103.949546,95.3008478 104.592593,94.7027815 104.592593,93.9381229 C104.592593,93.1401458 103.949546,92.5420794 103.196549,92.5420794 C102.433556,92.5420794 101.787178,93.1401458 101.787178,93.9381229 C101.787178,94.7027815 102.433556,95.3008478 103.196549,95.3008478 Z M103.196549,113.094571 C103.949546,113.094571 104.592593,112.449859 104.592593,111.698527 C104.592593,110.935535 103.949546,110.299152 103.196549,110.299152 C102.433556,110.299152 101.787178,110.935535 101.787178,111.698527 C101.787178,112.449859 102.433556,113.094571 103.196549,113.094571 Z M100.41779,133.600416 C101.189112,133.600416 101.787178,133.00235 101.787178,132.249353 C101.787178,131.439714 101.189112,130.841648 100.41779,130.841648 C99.6381377,130.841648 99.0400714,131.439714 99.0400714,132.249353 C99.0400714,133.00235 99.6381377,133.600416 100.41779,133.600416 Z M99.5565075,120.444623 C99.1416927,120.444623 98.8434925,120.752819 98.8434925,121.157638 C98.8434925,121.560791 99.1416927,121.870653 99.5565075,121.870653 C99.956329,121.870653 100.269523,121.560791 100.269523,121.157638 C100.269523,120.752819 99.956329,120.444623 99.5565075,120.444623 Z M96.8227279,102.794169 C97.5757251,102.794169 98.1854529,102.196103 98.1854529,101.39646 C98.1854529,100.633467 97.5757251,100.035401 96.8227279,100.035401 C96.0380782,100.035401 95.4250186,100.633467 95.4250186,101.39646 C95.4250186,102.196103 96.0380782,102.794169 96.8227279,102.794169 Z M97.0626209,109.364569 C97.4324557,109.364569 97.77397,109.056374 97.77397,108.651554 C97.77397,108.283385 97.4324557,107.938539 97.0626209,107.938539 C96.6578016,107.938539 96.3496058,108.283385 96.3496058,108.651554 C96.3496058,109.056374 96.6578016,109.364569 97.0626209,109.364569 Z M92.0781794,116.662978 C92.8395062,116.662978 93.4742228,116.064911 93.4742228,115.311914 C93.4742228,114.547256 92.8395062,113.902544 92.0781794,113.902544 C91.3251822,113.902544 90.7054589,114.547256 90.7054589,115.311914 C90.7054589,116.064911 91.3251822,116.662978 92.0781794,116.662978 Z M107.076484,125.289127 C106.311825,125.289127 105.678774,125.932173 105.678774,126.68517 C105.678774,127.448163 106.311825,128.047895 107.076484,128.047895 C107.839476,128.047895 108.472527,127.448163 108.472527,126.68517 C108.472527,125.932173 107.839476,125.289127 107.076484,125.289127 Z" id="white-logo"></path>
        </g>
    </g>
</svg>