<?xml version="1.0" encoding="UTF-8" standalone="no"?>
<svg width="60px" height="60px" viewBox="0 0 60 60" version="1.1" xmlns="http://www.w3.org/2000/svg" xmlns:xlink="http://www.w3.org/1999/xlink">
    <!-- Generator: Sketch 50.2 (55047) - http://www.bohemiancoding.com/sketch -->
    <title>work-icon</title>
    <desc>Created with Sketch.</desc>
    <defs></defs>
    <g id="作品標籤一覽" stroke="none" stroke-width="1" fill="none" fill-rule="evenodd">
        <g id="icon" transform="translate(-164.000000, -92.000000)">
            <g id="work-icon" transform="translate(164.000000, 92.000000)">
                <rect id="Rectangle-3-Copy-2" x="0" y="0" width="60" height="60"></rect>
                <g id="Group-10" transform="translate(5.000000, 9.000000)">
                    <path d="M39.9186089,0 L46.6523606,0 C47.9511653,0 49.0039542,1.06779254 49.0039542,2.38510708 L49.0039542,31.5580679 C49.0039542,32.8752815 47.9511653,33.943074 46.6523606,33.943074 L6.1686089,33.943074 L2.35149402,33.943074 C1.05278884,33.943074 0,32.8752815 0,31.5580679 L0,2.38510708 C0,1.06779254 1.05278884,0 2.35149402,0 L39.9186089,0 Z" id="Combined-Shape" fill="#FFF7EC"></path>
                    <path d="M0.833333333,23.6078431 L49.1666667,23.6078431 L49.1666667,31.2254902 C49.1666667,32.6062021 48.0473785,33.7254902 46.6666667,33.7254902 L3.33333333,33.7254902 C1.95262146,33.7254902 0.833333333,32.6062021 0.833333333,31.2254902 L0.833333333,23.6078431 Z" id="Rectangle-11" fill="#D9E8F7"></path>
                    <path d="M44.559927,0 L47.2265604,0 C48.5253652,0 49.5781541,1.06779254 49.5781541,2.38510708 L49.5781541,31.5580679 C49.5781541,32.8752815 48.5253652,33.943074 47.2265604,33.943074 L10.8333333,33.943074" id="Stroke-1" stroke="#185A9D" stroke-width="1.4" stroke-linecap="round" stroke-linejoin="round"></path>
                    <path d="M6.39614874,33.943074 L2.35149402,33.943074 C1.05278884,33.943074 0,32.8752815 0,31.5580679 L0,2.38510708 C0,1.06779254 1.05278884,0 2.35149402,0 L39.9996348,0" id="Stroke-3" stroke="#185A9D" stroke-width="1.4" stroke-linecap="round" stroke-linejoin="round"></path>
                    <path d="M0,24.4509804 L49.0039841,24.4509804" id="Stroke-5" stroke="#185A9D" stroke-width="1.4" stroke-linecap="round" stroke-linejoin="round"></path>
                    <path d="M23.3333333,29.4398663 C23.3333333,28.5471432 24.0468792,27.8235294 24.9269588,27.8235294 C25.8071381,27.8235294 26.5205843,28.5471432 26.5205843,29.4398663 C26.5205843,30.3325893 25.8071381,31.0562031 24.9269588,31.0562031 C24.0468792,31.0562031 23.3333333,30.3325893 23.3333333,29.4398663 Z" id="Stroke-7" stroke="#185A9D" stroke-width="1.4" fill="#FFFFFF" stroke-linecap="round" stroke-linejoin="round"></path>
                    <polygon id="Stroke-9" stroke="#185A9D" stroke-width="1.4" fill="#D9E8F7" stroke-linecap="round" stroke-linejoin="round" points="19 39.5561579 30.1553785 39.5561579 30.1553785 34 19 34"></polygon>
                    <path d="M34.3227092,42.9611457 L15,42.9611457 C15,41.119936 16.4715139,39.627451 18.2868526,39.627451 L31.0358566,39.627451 C32.8511952,39.627451 34.3227092,41.119936 34.3227092,42.9611457 Z" id="Stroke-11" stroke="#185A9D" stroke-width="1.4" fill="#D9E8F7" stroke-linecap="round" stroke-linejoin="round"></path>
                    <path d="M5.83333333,11.4270353 C5.83333333,9.30690648 7.52785525,7.58823529 9.61819389,7.58823529 C11.7085325,7.58823529 13.4030544,9.30690648 13.4030544,11.4270353 C13.4030544,13.5471642 11.7085325,15.2658354 9.61819389,15.2658354 C7.52785525,15.2658354 5.83333333,13.5471642 5.83333333,11.4270353 Z" id="Stroke-12" stroke="#185A9D" stroke-width="1.4" fill="#F8E71C" stroke-linecap="round" stroke-linejoin="round"></path>
                    <polygon id="Stroke-13" stroke="#185A9D" stroke-width="1.4" fill="#F7909D" stroke-linecap="round" stroke-linejoin="round" points="9.16666667 20.526701 16.935591 20.526701 16.935591 12.6470588 9.16666667 12.6470588"></polygon>
                    <polygon id="Stroke-14" stroke="#185A9D" stroke-width="1.4" fill="#43CEA2" stroke-linecap="round" stroke-linejoin="round" points="13.3333333 16.7539532 20.7038513 11.8039216 20.7038513 20.6937743"></polygon>
                    <path d="M27.5,20.2352941 L45.0298805,20.2352941" id="Stroke-15" stroke="#185A9D" stroke-width="1.4" stroke-linecap="round" stroke-linejoin="round"></path>
                    <path d="M31.6666667,16.8627451 L45.2124834,16.8627451" id="Stroke-16" stroke="#185A9D" stroke-width="1.4" stroke-linecap="round" stroke-linejoin="round"></path>
                    <path d="M35.8333333,13.4901961 L45.3950863,13.4901961" id="Stroke-17" stroke="#185A9D" stroke-width="1.4" stroke-linecap="round" stroke-linejoin="round"></path>
                    <polygon id="Stroke-18" stroke="#185A9D" stroke-width="1.4" fill="#A6CEFD" stroke-linecap="round" stroke-linejoin="round" points="23.3333333 7.88333325 45.2456839 7.88333325 45.2456839 4.21568627 23.3333333 4.21568627"></polygon>
                </g>
            </g>
        </g>
    </g>
</svg>