<?xml version="1.0" encoding="UTF-8" standalone="no"?>
<svg width="24px" height="35px" viewBox="0 0 24 35" version="1.1" xmlns="http://www.w3.org/2000/svg" xmlns:xlink="http://www.w3.org/1999/xlink">
    <!-- Generator: Sketch 50.2 (55047) - http://www.bohemiancoding.com/sketch -->
    <title>RWD</title>
    <desc>Created with Sketch.</desc>
    <defs></defs>
    <g id="作品標籤一覽" stroke="none" stroke-width="1" fill="none" fill-rule="evenodd">
        <g id="icon" transform="translate(-126.000000, -201.000000)">
            <g id="Group-6" transform="translate(116.000000, 195.000000)">
                <g id="RWD" transform="translate(10.000000, 6.000000)">
                    <polygon id="Fill-1" fill="#00A88F" points="0 8 2.1719457 31.490991 11.9457014 34.3288288 21.7737557 31.490991 23.9457014 8"></polygon>
                    <polygon id="Fill-2" fill="#42CBC3" points="20.3168145 29.8687538 12.0042353 32.269039 12 10 22.1538462 10"></polygon>
                    <path d="M15.7436018,18.6756757 L7.63790045,18.6756757 L7.37400905,15.8378378 L16.0074932,15.8378378 L15.7436018,18.6756757 Z M19.0557104,13 L4,13 L5.36561086,27.7172372 L8.73462443,28.6954505 L7.80839819,21.6186186 L13.0753665,21.6186186 L13.8208869,28.8082282 L17.6607783,27.7126126 L16.2246878,21.6186186 L18.2539367,21.6186186 L19.0557104,13 Z" id="Fill-3" fill="#FFFFFF"></path>
                    <path d="M2.8172635,0.703095674 L2.8172635,3.1331701 L4.42908875,3.1331701 C5.26905402,3.1331701 5.74579106,2.6937353 5.74579106,1.91593571 C5.74579106,1.15571351 5.23727155,0.703095674 4.39276593,0.703095674 L2.8172635,0.703095674 Z M2.8172635,3.83187142 L2.8172635,6.34104411 L2,6.34104411 L2,0 L4.50173439,0 C5.76395247,0 6.59029668,0.747039153 6.59029668,1.88956962 C6.59029668,2.77283356 6.09539823,3.45835185 5.27359437,3.70882968 L6.7900722,6.34104411 L5.83205776,6.34104411 L4.42908875,3.83187142 L2.8172635,3.83187142 Z M11.253239,1.30951569 L9.74130152,6.34104411 L8.96944155,6.34104411 L7.1850829,0 L8.03866922,0 L9.35083118,5.1765419 L9.38715401,5.1765419 L10.8627687,0 L11.6891129,0 L13.1647275,5.1765419 L13.2010504,5.1765419 L14.5132123,0 L15.3667986,0 L13.58244,6.34104411 L12.81058,6.34104411 L11.2986425,1.30951569 L11.253239,1.30951569 Z M16.2067639,0 L18.4542385,0 C20.3975095,0 21.5462188,1.17329091 21.5462188,3.16832488 C21.5462188,5.1677532 20.4020499,6.34104411 18.4542385,6.34104411 L16.2067639,6.34104411 L16.2067639,0 Z M17.0240274,0.71188437 L17.0240274,5.62915974 L18.3997543,5.62915974 C19.8844497,5.62915974 20.7107939,4.75029015 20.7107939,3.17711358 C20.7107939,1.59075396 19.88899,0.71188437 18.3997543,0.71188437 L17.0240274,0.71188437 Z" fill="#000000"></path>
                </g>
            </g>
        </g>
    </g>
</svg>