<?xml version="1.0" encoding="UTF-8" standalone="no"?>
<svg width="292px" height="30px" viewBox="0 0 292 30" version="1.1" xmlns="http://www.w3.org/2000/svg" xmlns:xlink="http://www.w3.org/1999/xlink">
    <!-- Generator: Sketch 50.2 (55047) - http://www.bohemiancoding.com/sketch -->
    <title>tools-sprite</title>
    <desc>Created with Sketch.</desc>
    <defs>
        <polygon id="path-1" points="0.00375 0.0596242171 32 0.0596242171 32 29.9962422 0.00375 29.9962422"></polygon>
        <path d="M1.13428428,5.81102104 C0.740508296,5.68471492 0.337173765,5.97638839 0.337173765,6.38738839 L0.337173765,11.8442204 C0.337173765,12.1069959 0.507775741,12.3398327 0.759504403,12.4205878 L16.917871,17.6041592 C17.1541124,17.6799551 17.3961615,17.5049755 17.3961615,17.2583633 L17.3961615,11.6874245 C17.3961615,11.5297714 17.2938003,11.3900571 17.1427389,11.3416286 L1.13428428,5.81102104 Z" id="path-3"></path>
        <filter x="-11.7%" y="-8.4%" width="123.4%" height="133.8%" filterUnits="objectBoundingBox" id="filter-4">
            <feOffset dx="0" dy="1" in="SourceAlpha" result="shadowOffsetOuter1"></feOffset>
            <feGaussianBlur stdDeviation="0.5" in="shadowOffsetOuter1" result="shadowBlurOuter1"></feGaussianBlur>
            <feColorMatrix values="0 0 0 0 0   0 0 0 0 0   0 0 0 0 0  0 0 0 0.13 0" type="matrix" in="shadowBlurOuter1"></feColorMatrix>
        </filter>
    </defs>
    <g id="作品標籤一覽" stroke="none" stroke-width="1" fill="none" fill-rule="evenodd">
        <g id="icon">
            <g id="Group-8-Copy" transform="translate(104.000000, 0.000000)">
                <rect id="Rectangle-15" stroke="#34D2FA" stroke-width="1.875" fill="#171633" x="0.9375" y="0.9375" width="30.125" height="28.125"></rect>
                <path d="M11.4437453,14.2007977 L9.75259636,14.2007977 L9.75259636,9.01730627 C11.1266549,9.01730627 13.9232867,8.62801549 13.9232867,11.5008334 C13.9232867,14.3736513 11.4437453,14.2007977 11.4437453,14.2007977 M9.91114157,7.00738101 C11.7545996,7.00738101 16.2886756,6.61248359 16.2886756,11.5996371 C16.2886756,16.5868964 11.2323517,16.3112193 9.85829317,16.3112193 L9.85829317,21.5 L7.53296337,21.5 L7.53296337,7.00738101 L9.09241409,7.00738101 L9.91114157,7.00738101 Z M17.7149801,18.3851236 C18.3002233,18.8020244 18.688342,19.0362336 19.3002208,19.2945619 C19.9120996,19.5533133 20.4270545,19.6824775 20.8451911,19.6824775 C21.2784423,19.6824775 21.6507064,19.5743647 21.962512,19.3582448 C22.2741062,19.1423365 22.430009,18.8837967 22.430009,18.5826252 C22.430009,18.2740488 22.3291742,18.0173073 22.1278218,17.8128238 C21.9263637,17.6084462 21.4911043,17.3133045 20.8223605,16.9272931 C19.4844503,16.1709265 18.6085409,15.5245768 18.1943151,14.9881384 C17.7799836,14.4516999 17.5729236,13.8672348 17.5729236,13.2343199 C17.5729236,12.4162803 17.8864203,11.7487735 18.5135195,11.2314823 C19.1406186,10.7145083 19.9482479,10.4559685 20.9364074,10.4559685 C21.962512,10.4559685 22.6034417,10.4559685 23.7790174,10.9219538 L23.7790174,13.0055058 C22.5476496,12.2493507 21.8559696,12.2850004 21.0732848,12.2850004 C20.6702628,12.2850004 20.3453508,12.3720619 20.0984431,12.5457618 C19.851324,12.7196732 19.7278701,12.9495452 19.7278701,13.2353777 C19.7278701,13.4829159 19.8396973,13.7185003 20.0634575,13.9424483 C20.2872176,14.1666078 20.6806211,14.4365725 21.2431395,14.7527655 L21.984497,15.1809854 C23.733145,16.1841497 24.6076804,17.2951094 24.6076804,18.5140762 C24.6076804,19.3860664 24.2713531,20.1017056 23.5985929,20.6609937 C22.9259384,21.2203877 22.0612328,21.4999788 21.0047932,21.4999788 C20.3813935,21.4999788 19.8264852,21.4323819 19.3401742,21.2972937 C18.8536518,21.1624172 18.4521096,21.0170679 17.7149801,20.6541177 L17.7149801,18.3851236 Z" id="Fill-1" fill="#34D2FA"></path>
            </g>
            <g id="Group">
                <polyline id="Fill-1" fill="#F7C150" points="6 10.960334 6 1.94154489 16 0.0596242171 26 1.94154489 26 10.960334 6 10.960334"></polyline>
                <g id="Group-7">
                    <mask id="mask-2" fill="white">
                        <use xlink:href="#path-1"></use>
                    </mask>
                    <g id="Clip-3"></g>
                    <polyline id="Fill-2" fill="#FBDDA5" mask="url(#mask-2)" points="6 10.960334 16 0.0596242171 26 10.960334 6 10.960334"></polyline>
                    <polyline id="Fill-4" fill="#EA8939" mask="url(#mask-2)" points="0 10.960334 16 30 32 10.960334 0 10.960334"></polyline>
                    <polyline id="Fill-5" fill="#F3B53C" mask="url(#mask-2)" points="6 10.960334 16 30 26 10.960334 6 10.960334"></polyline>
                    <polyline id="Fill-6" fill="#F1AB38" mask="url(#mask-2)" points="0 10.960334 6 1.94154489 6 10.960334 0 10.960334"></polyline>
                </g>
                <polyline id="Fill-8" fill="#F1AB38" points="26 1.94154489 26 10.960334 32 10.960334 26 1.94154489"></polyline>
            </g>
            <g id="Group-8" transform="translate(52.000000, 0.000000)">
                <rect id="Rectangle-15" stroke="#FF8723" stroke-width="1.875" fill="#2C1509" x="0.9375" y="0.9375" width="30.125" height="28.125"></rect>
                <path d="M11.3059673,7.06849315 L11.3059673,7.62029704 L7.47506562,21.2876712 L9.73470168,21.2876712 L10.7951804,17.296323 L15.0604212,17.296323 L16.1584427,21.2876712 L18.7296588,21.2876712 L14.4558198,7.06849315 L11.3059673,7.06849315 Z M12.948271,9.04109589 L14.5301837,15.0410959 L11.4225722,15.0410959 L12.948271,9.04109589 Z M20.7454068,7.89041096 C20.7454068,7.16411899 21.3470612,6.57534247 22.0892388,6.57534247 C22.8314165,6.57534247 23.4330709,7.16411899 23.4330709,7.89041096 C23.4330709,8.61670293 22.8314165,9.20547945 22.0892388,9.20547945 C21.3470612,9.20547945 20.7454068,8.61670293 20.7454068,7.89041096 Z M20.9133858,21.2054795 L20.9133858,10.6027397 L23.3490814,10.6027397 L23.3490814,21.2054795 L20.9133858,21.2054795 Z" id="Fill-1" fill="#FF8C21"></path>
            </g>
            <g id="sublime" transform="translate(156.000000, 0.000000)">
                <rect id="bg" x="0" y="0" width="32" height="30"></rect>
                <g id="Group" transform="translate(1.000000, 0.000000)">
                    <rect id="Rectangle" fill="#424242" x="0" y="0" width="30" height="30" rx="3"></rect>
                    <g id="Group-2" transform="translate(6.000000, 3.000000)">
                        <path d="M1.12299551,11.9332531 L16.9720401,6.99843673 C17.2243738,6.91988571 17.3961252,6.68753878 17.3961252,6.42470204 L17.3961252,1.06945714 C17.3961252,0.825967347 17.1584319,0.652457143 16.9246104,0.725253061 L0.761222522,5.75790612 C0.508888889,5.83645714 0.337137466,6.06880408 0.337137466,6.33164082 L0.337137466,11.3595184 C0.337137466,11.7653143 0.733333333,12.0546 1.12299551,11.9332531" id="Fill-3" fill="#FF9800"></path>
                        <path d="M0.751651872,22.8843184 L16.972028,17.8732163 C17.2243617,17.7952776 17.3961736,17.5647673 17.3961736,17.3040122 L17.3961736,11.9904612 C17.3961736,11.7488694 17.1584198,11.5767061 16.9246588,11.6488898 L0.761270919,16.6423592 C0.508876789,16.7203592 0.337125367,16.9508694 0.337125367,17.2116245 L0.337125367,22.5840735 C0.337125367,22.7964612 0.546143037,22.9478082 0.751651872,22.8843184" id="Fill-5" fill="#FF9700"></path>
                        <g id="Fill-7">
                            <use fill="black" fill-opacity="1" filter="url(#filter-4)" xlink:href="#path-3"></use>
                            <use fill="#FF9800" fill-rule="evenodd" xlink:href="#path-3"></use>
                        </g>
                    </g>
                </g>
            </g>
            <g id="Group-3" transform="translate(208.000000, 0.000000)">
                <rect id="Rectangle-15" stroke="#FC68FF" stroke-width="1.8753194" fill="#300037" x="0.937659698" y="0.937659698" width="30.1246806" height="28.1246806"></rect>
                <path d="M19.2810364,21.7808219 L19.2810364,11.7064656 C19.2810364,11.7064656 20.5755484,11.1809558 21.9002585,10.8927336 C23.2249685,10.6045114 24.5194805,10.648431 24.5194805,10.648431 L24.5194805,12.9272162 C24.5194805,12.9272162 23.7657609,12.8085723 23.0977052,12.8254997 C22.4298035,12.842427 21.7461866,13.0884071 21.7461866,13.0884071 L21.7461866,21.7808219 L19.2810364,21.7808219 Z M13.5467428,6.98630137 C14.3083201,6.98630137 14.9491051,7.11318013 15.4684814,7.36663264 C15.9878578,7.62039016 16.4064711,7.9526844 16.7252458,8.36397287 C17.0437124,8.77510884 17.2723551,9.24495674 17.4108657,9.77244907 C17.5492222,10.3002464 17.6185546,10.8384136 17.6185546,11.3866458 C17.6185546,12.1405984 17.5043873,13.2561249 17.2757446,13.8180819 C17.047256,14.3803439 16.7286354,14.8395169 16.3201908,15.1957534 C15.9114381,15.5522949 15.4165592,15.8197773 14.8349378,15.9977431 C14.2531624,16.1760138 13.6091419,16.2649205 12.9028764,16.2649205 L10.6870146,16.2649205 L10.6870146,21.66779 L8.31168831,21.66779 L8.31168831,6.98630137 L13.5467428,6.98630137 Z M12.6327884,14.0854118 C13.2281222,14.0854118 13.7094427,13.9074461 14.076596,13.5507521 C14.4432871,13.1945155 14.6270949,12.181773 14.6270949,11.4276679 C14.6270949,10.6874401 14.4677845,10.1254831 14.149318,9.74164437 C13.8305432,9.35795813 13.2974545,9.16581002 12.5495896,9.16581002 L10.6870146,9.16581002 L10.6870146,14.0854118 L12.6327884,14.0854118 Z" id="Combined-Shape" fill="#FC68FF"></path>
            </g>
            <g id="Group-4" transform="translate(260.000000, 0.000000)">
                <rect id="Rectangle-15" stroke="#DD8BFF" stroke-width="1.875" fill="#240044" x="0.9375" y="0.9375" width="30.125" height="28.125"></rect>
                <path d="M9.76081229,6.25 L9.76081229,6.79428571 L5.81818182,21.25 L8.13312498,21.25 L9.21946194,16.9642857 L13.5890516,16.9642857 L14.714024,21.25 L17.3480502,21.25 L12.9696729,6.25 L9.76081229,6.25 Z M11.4088021,8.29581633 L13.0457316,14.6683673 L9.8299015,14.6683673 L11.4088021,8.29581633 Z M20.7672542,16.4929184 C20.8131621,18.2545 21.8226828,18.9034796 23.1532562,18.9034796 C24.0023262,18.9034796 25.0759362,18.6461837 25.603499,18.4608265 L25.543349,20.7686837 C24.7633682,21.0700612 23.7499082,21.2212857 22.6026636,21.2212857 C19.5512234,21.2212857 17.876416,19.1815918 17.876416,15.6354694 C17.876416,11.8341939 19.8265197,9.56276531 22.3732753,9.56276531 C24.7823071,9.56276531 26.1818182,11.4865918 26.1818182,14.9168469 C26.1818182,15.7280714 26.1587884,16.1684286 26.0900023,16.4929184 L20.7672542,16.4929184 Z M23.9061165,14.2075612 C23.9061165,12.7473571 23.08447,11.7647041 22.189795,11.7647041 C21.2031525,11.7647041 20.3586278,13.0718469 20.3357496,14.2075612 L23.9061165,14.2075612 Z" id="Combined-Shape" fill="#DD8BFF"></path>
            </g>
        </g>
    </g>
</svg>