<?xml version="1.0" encoding="UTF-8" standalone="no"?>
<svg width="85px" height="80px" viewBox="0 0 85 80" version="1.1" xmlns="http://www.w3.org/2000/svg" xmlns:xlink="http://www.w3.org/1999/xlink">
    <!-- Generator: Sketch 50.2 (55047) - http://www.bohemiancoding.com/sketch -->
    <title>ai-icon-white</title>
    <desc>Created with Sketch.</desc>
    <defs></defs>
    <g id="網頁mockup" stroke="none" stroke-width="1" fill="none" fill-rule="evenodd">
        <g id="skill" transform="translate(-607.000000, -1176.000000)" fill="#FFFFFF">
            <g id="Group-9" transform="translate(607.000000, 1176.000000)">
                <g id="ai-icon-white">
                    <rect id="Rectangle-15" stroke-opacity="0.7" stroke="#FFFFFF" stroke-width="3.94520548" fill-opacity="0.200000018" x="1.97260274" y="1.97260274" width="80.0944172" height="76.0547945"></rect>
                    <path d="M29.6921633,18.8493151 L29.6921633,20.3207921 L19.6313029,56.7671233 L25.5656455,56.7671233 L28.3507152,46.123528 L39.5522535,46.123528 L42.4359197,56.7671233 L49.1885455,56.7671233 L37.9644262,18.8493151 L29.6921633,18.8493151 Z M34.005244,24.109589 L38.1597237,40.109589 L29.9983955,40.109589 L34.005244,24.109589 Z M54.48238,21.0410959 C54.48238,19.1043173 56.0624678,17.5342466 58.011603,17.5342466 C59.9607383,17.5342466 61.540826,19.1043173 61.540826,21.0410959 C61.540826,22.9778745 59.9607383,24.5479452 58.011603,24.5479452 C56.0624678,24.5479452 54.48238,22.9778745 54.48238,21.0410959 Z M54.9235329,56.5479452 L54.9235329,28.2739726 L61.3202496,28.2739726 L61.3202496,56.5479452 L54.9235329,56.5479452 Z" id="Fill-1"></path>
                </g>
            </g>
        </g>
    </g>
</svg>