<?xml version="1.0" encoding="UTF-8" standalone="no"?>
<svg width="89px" height="84px" viewBox="0 0 89 84" version="1.1" xmlns="http://www.w3.org/2000/svg" xmlns:xlink="http://www.w3.org/1999/xlink">
    <!-- Generator: Sketch 50.2 (55047) - http://www.bohemiancoding.com/sketch -->
    <title>macos-icon-white</title>
    <desc>Created with Sketch.</desc>
    <defs></defs>
    <g id="網頁mockup" stroke="none" stroke-width="1" fill="none" fill-rule="evenodd">
        <g id="skill" transform="translate(-1075.000000, -1174.000000)">
            <g id="Group-9" transform="translate(607.000000, 1176.000000)">
                <g id="macos-icon-white" transform="translate(470.555189, 0.000000)">
                    <path d="M47.3658433,47.7308223 C47.3658433,45.8171883 45.3343511,46.0476393 45.3343511,46.0476393 L38.1854233,46.0476393 C35.7750045,46.0476393 35.484608,45.7331565 35.4433366,40.1429178 C35.3669953,29.8182493 37.8434911,18.4701326 39.2896997,13.048382 C40.3659629,9.0137931 42.7654759,3.18291777 43.9227849,0.212095491 L4.51718318,0.212095491 C1.98957926,0.212095491 0,2.35129973 0,4.85952255 L0,75.1877984 C0,77.6960212 1.98957926,79.7876923 4.51718318,79.7876923 L51.3775057,79.7876923 C50.6741817,76.81687 49.3646177,70.9299735 48.7913093,66.3483289 C47.9876937,59.9275332 47.3658433,49.6444562 47.3658433,47.7308223 Z" id="Stroke-7" stroke-opacity="0.8" stroke="#FFFFFF" stroke-width="4" fill-opacity="0.200000018" fill="#FFFFFF"></path>
                    <path d="M79.5670468,0.212201592 L43.9226993,0.212201592 C42.7653903,3.18302387 40.3660912,9.013687 39.289828,13.0484881 C37.8434056,18.4700265 35.3671236,29.7918302 35.4434649,40.1164987 C35.4847363,45.7067374 35.7751328,46.0477454 38.1853378,46.0477454 L45.3342656,46.0477454 C45.3342656,46.0477454 47.3657578,45.8172944 47.3657578,47.7309284 C47.3657578,49.6443501 47.987822,59.9276393 48.7912237,66.3482228 C49.3645322,70.9300796 50.67431,76.8169761 51.3774202,79.7877984 L79.5670468,79.7877984 C82.0946507,79.7877984 84.0395371,77.6961273 84.0395371,75.1879045 L84.0395371,4.85941645 C84.0395371,2.35119363 82.0946507,0.212201592 79.5670468,0.212201592 Z" id="Stroke-9" stroke-opacity="0.8" stroke="#FFFFFF" stroke-width="4"></path>
                    <path d="M42.0421577,62.7712679 C32.22556,62.7712679 25.6259904,59.7261751 21.8187603,57.1716923 C17.6441508,54.3710557 15.8245754,51.5610822 15.7493033,51.4426737 C15.4332459,50.9476074 15.5820794,50.2921167 16.0809711,49.9789072 C16.5798628,49.6654854 17.2384939,49.8125411 17.554979,50.306122 C17.5827784,50.3489867 19.282175,52.9331777 23.11528,55.4800212 C26.6648314,57.8382175 32.8294478,60.649252 42.0421577,60.649252 C59.7212716,60.649252 66.2971048,50.4209231 66.361471,50.3175809 C66.6717547,49.8189072 67.330172,49.664 67.8329129,49.9727533 C68.335226,50.2810822 68.4909025,50.9348753 68.1801911,51.4331247 C68.1066297,51.5515332 66.3264011,54.3657507 62.1894277,57.1691459 C58.417909,59.7249019 51.8611077,62.7712679 42.0421577,62.7712679 Z M22.9879375,29.602122 C22.2202473,29.602122 21.5979692,28.9846154 21.5979692,28.2228117 L21.5979692,21.4323607 C21.5979692,20.670557 22.2202473,20.0530504 22.9879375,20.0530504 C23.7556277,20.0530504 24.3779058,20.670557 24.3779058,21.4323607 L24.3779058,28.2228117 C24.3779058,28.9846154 23.7556277,29.602122 22.9879375,29.602122 Z M60.8378439,29.602122 C60.0701537,29.602122 59.4478756,28.9846154 59.4478756,28.2228117 L59.4478756,21.4323607 C59.4478756,20.670557 60.0701537,20.0530504 60.8378439,20.0530504 C61.6055341,20.0530504 62.2278122,20.670557 62.2278122,21.4323607 L62.2278122,28.2228117 C62.2278122,28.9846154 61.6055341,29.602122 60.8378439,29.602122 Z" id="Combined-Shape" fill="#FFFFFF"></path>
                </g>
            </g>
        </g>
    </g>
</svg>