<?xml version="1.0" encoding="UTF-8" standalone="no"?>
<svg width="85px" height="80px" viewBox="0 0 85 80" version="1.1" xmlns="http://www.w3.org/2000/svg" xmlns:xlink="http://www.w3.org/1999/xlink">
    <!-- Generator: Sketch 50.2 (55047) - http://www.bohemiancoding.com/sketch -->
    <title>ps-icon-white</title>
    <desc>Created with Sketch.</desc>
    <defs></defs>
    <g id="網頁mockup" stroke="none" stroke-width="1" fill="none" fill-rule="evenodd">
        <g id="skill" transform="translate(-763.000000, -1176.000000)" fill="#FFFFFF">
            <g id="Group-9" transform="translate(607.000000, 1176.000000)">
                <g id="ps-icon-white" transform="translate(156.407075, 0.000000)">
                    <rect id="Rectangle-15" stroke-opacity="0.7" stroke="#FFFFFF" stroke-width="3.94520548" fill-opacity="0.200000018" x="1.97260274" y="1.97260274" width="80.0944172" height="76.0547945"></rect>
                    <path d="M30.3974484,40.5354606 L25.9053341,40.5354606 L25.9053341,26.7128167 C29.555177,26.7128167 36.9837304,25.674708 36.9837304,33.3355557 C36.9837304,40.9964035 30.3974484,40.5354606 30.3974484,40.5354606 M26.3264698,21.353016 C31.2231552,21.353016 43.2667946,20.2999562 43.2667946,33.5990322 C43.2667946,46.8983903 29.8359342,46.1632514 26.1860912,46.1632514 L26.1860912,60 L20.009434,60 L20.009434,21.353016 L24.1517249,21.353016 L26.3264698,21.353016 Z M47.0554158,51.693663 C48.6099681,52.8053985 49.6409084,53.4299563 51.2662115,54.1188317 C52.8915146,54.8088356 54.2593635,55.1532733 55.3700387,55.1532733 C56.5208623,55.1532733 57.509689,54.8649724 58.3379226,54.2886528 C59.1655946,53.7128974 59.5797114,53.0234577 59.5797114,52.2203339 C59.5797114,51.3974635 59.3118691,50.7128194 58.7770267,50.1675303 C58.2419036,49.6225231 57.0857457,48.8354787 55.3093952,47.8061149 C51.7555712,45.7891373 49.4289367,44.0655382 48.3286495,42.6350356 C47.2280814,41.204533 46.6780782,39.6459594 46.6780782,37.9581864 C46.6780782,35.7767475 47.5108039,33.9967295 49.176536,32.617286 C50.8422682,31.2386889 52.9875336,30.5492492 55.6123322,30.5492492 C58.3379226,30.5492492 60.0403921,30.5492492 63.1630149,31.7918767 L63.1630149,37.3480154 C59.8921941,35.3316019 58.0549193,35.4266679 55.9759127,35.4266679 C54.9053857,35.4266679 54.0423382,35.6588319 53.3864895,36.1220315 C52.7300793,36.5857953 52.4021549,37.1987872 52.4021549,37.9610073 C52.4021549,38.6211091 52.699196,39.2493341 53.2935589,39.8465288 C53.8879218,40.4442876 54.9328999,41.1641935 56.4270894,42.0073747 L58.39632,43.1492944 C63.0411663,45.8243991 65.3641509,48.7869584 65.3641509,52.0375365 C65.3641509,54.3628437 64.4707817,56.2712149 62.6837624,57.7626499 C60.897024,59.2543671 58.6001497,59.9999436 55.793982,59.9999436 C54.1380764,59.9999436 52.6641013,59.819685 51.3723377,59.45945 C50.0800126,59.0997792 49.0134161,58.7121809 47.0554158,57.7443138 L47.0554158,51.693663 Z" id="Fill-1"></path>
                </g>
            </g>
        </g>
    </g>
</svg>