<?xml version="1.0" encoding="UTF-8" standalone="no"?>
<svg width="81px" height="80px" viewBox="0 0 81 80" version="1.1" xmlns="http://www.w3.org/2000/svg" xmlns:xlink="http://www.w3.org/1999/xlink">
    <!-- Generator: Sketch 50.2 (55047) - http://www.bohemiancoding.com/sketch -->
    <title>sublime-icon-white</title>
    <desc>Created with Sketch.</desc>
    <defs></defs>
    <g id="網頁mockup" stroke="none" stroke-width="1" fill="none" fill-rule="evenodd">
        <g id="skill" transform="translate(-1233.000000, -1176.000000)" fill="#FFFFFF">
            <g id="Group-9" transform="translate(607.000000, 1176.000000)">
                <g id="sublime-icon-white" transform="translate(626.962264, 0.000000)">
                    <path d="M76.343635,78 C77.2794922,78 78.0377849,77.242088 78.0377849,76.3075918 L78.0377849,3.69240816 C78.0377849,2.75791198 77.2794922,2 76.343635,2 L3.69403553,2 C2.7582368,2 2.000049,2.75785348 2.000049,3.69240816 L2.000049,76.3075918 C2.000049,77.2421465 2.7582368,78 3.69403553,78 L76.343635,78 Z" id="Stroke-1" stroke-opacity="0.7" stroke="#FFFFFF" stroke-width="4" fill-opacity="0.300000012"></path>
                    <path d="M19.2320879,39.8220082 L62.0245084,26.662498 C62.7058092,26.4530286 63.169538,25.8334367 63.169538,25.1325388 L63.169538,10.8518857 C63.169538,10.2025796 62.527766,9.73988571 61.896448,9.93400816 L18.2553008,23.3544163 C17.574,23.5638857 17.1102712,24.1834776 17.1102712,24.8843755 L17.1102712,38.292049 C17.1102712,39.3741714 18.18,40.1456 19.2320879,39.8220082" id="Fill-3" fill-opacity="0.699999988"></path>
                    <path d="M18.2294601,69.024849 L62.0244757,55.6619102 C62.7057765,55.4540735 63.1696687,54.8393796 63.1696687,54.1440327 L63.1696687,39.9745633 C63.1696687,39.3303184 62.5277334,38.8712163 61.8965787,39.0637061 L18.2554315,52.3796245 C17.5739673,52.5876245 17.1102385,53.2023184 17.1102385,53.8976653 L17.1102385,68.2241959 C17.1102385,68.7905633 17.6745862,69.1941551 18.2294601,69.024849" id="Fill-5" fill-opacity="0.699999988"></path>
                    <path d="M19.2625675,23.4960561 C18.1993724,23.1592398 17.1103692,23.9370357 17.1103692,25.0330357 L17.1103692,39.5845878 C17.1103692,40.2853224 17.5709945,40.9062204 18.2506619,41.1215673 L61.8782516,54.9444245 C62.5161034,55.1465469 63.169636,54.6799347 63.169636,54.022302 L63.169636,39.1664653 C63.169636,38.7460571 62.8932608,38.3734857 62.485395,38.2443429 L19.2625675,23.4960561 Z" id="Fill-7"></path>
                </g>
            </g>
        </g>
    </g>
</svg>