<?xml version="1.0" encoding="UTF-8" standalone="no"?>
<svg width="194px" height="56px" viewBox="0 0 194 56" version="1.1" xmlns="http://www.w3.org/2000/svg" xmlns:xlink="http://www.w3.org/1999/xlink">
    <!-- Generator: Sketch 50.2 (55047) - http://www.bohemiancoding.com/sketch -->
    <title>logo</title>
    <desc>Created with Sketch.</desc>
    <defs>
        <linearGradient x1="50%" y1="0%" x2="50%" y2="100%" id="linearGradient-1">
            <stop stop-color="#43CEA2" offset="0%"></stop>
            <stop stop-color="#185A9D" offset="100%"></stop>
        </linearGradient>
    </defs>
    <g id="網頁mockup" stroke="none" stroke-width="1" fill="none" fill-rule="evenodd">
        <g id="portfolio" transform="translate(-240.000000, -27.000000)">
            <g id="logo" transform="translate(240.000000, 27.000000)">
                <g id="Group">
                    <circle id="Oval" fill="#FFFFFF" cx="28" cy="28" r="28"></circle>
                    <path d="M28.0158263,0 C43.4839209,0 56,12.5510635 56,27.9825078 C56,37.015142 51.7668898,45.0298974 45.1814964,50.1492786 L45.1814964,38.4794883 L45.2048193,38.4794883 C45.2048193,38.4794883 45.8978432,36.5803362 46.0361148,36.1172096 C46.2093708,35.6440875 46.6358471,36.5436859 47.4538153,36.4054142 C48.2934404,36.3137885 51.4437007,33.2135059 51.588636,32.7287223 C51.7635579,32.2439387 51.7369032,31.5742377 51.8185334,31.30769 C51.9268184,31.0311468 54.0425405,28.6072289 53.6727056,28.3190242 C53.2662204,27.9825078 51.7585602,30.3947642 51.2271307,30.962844 C50.6773762,31.4826119 48.4033913,32.0240369 46.4076156,32.0240369 C44.3651941,32.0240369 42.1095344,31.5175963 42.1095344,31.5175963 L42.1095344,27.8675591 C42.1095344,27.8675591 44.022014,27.7159601 45.103198,27.4044325 C46.2027071,27.0945709 47.8369775,22.7981556 47.8619664,22.4066637 C47.8836234,22.0601517 49.4196043,20.605801 49.7627845,20.086033 C50.0776439,19.5196192 49.4312658,19.7278596 49.4312658,19.7278596 L47.4554812,21.9085527 C44.7316972,22.9147702 42.2844563,22.6615499 40.9433884,22.2950469 C39.4657147,21.8552432 36.1655213,20.4125539 35.3308939,19.5779265 C34.5112599,18.6933214 34.6795181,15.0799346 34.6795181,15.0799346 C34.6795181,14.1670088 33.9115276,13.838822 34.0014874,15.0849323 C34.0731221,16.3310427 33.7432694,18.6983192 33.2251673,19.4579801 C32.713729,20.2076454 30.6679756,21.1705489 28.8921017,22.2783876 C27.0995686,23.3412465 23.7144132,22.5099509 22.9530864,22.291715 C22.2017552,22.0834746 20.8673509,20.97397 20.4458724,20.777391 C19.9960732,20.5474937 20.1560018,21.0889186 20.1560018,21.0889186 L21.9751896,22.7648371 C21.9751896,22.7648371 21.8952253,23.7110814 22.1234568,24.1042392 C22.3516882,24.5307155 23.3695672,26.1233378 24.022609,26.7813774 C24.6856463,27.4760672 27.9641827,27.9025435 27.9641827,27.9025435 L27.9641827,31.6208835 C27.9641827,31.6208835 23.4345382,32.9836085 21.297159,32.7287223 C19.1664436,32.475502 17.6887699,30.3964302 17.3889038,30.1082255 C17.0757102,29.8083594 16.5676037,30.1215529 16.8358173,30.3764391 C17.1123606,30.6296594 18.7982746,32.3638852 18.7982746,32.3638852 L18.9015618,33.4184144 C19.3396995,34.2946899 21.8868957,36.2321583 22.4349844,36.3704299 C22.9780753,36.4637216 23.5378254,35.9739402 23.5378254,35.9739402 L25.1704299,38.4794883 L25.1704299,50.9489216 L26.3032575,50.9489216 L26.3032575,38.4794883 L27.3877733,38.4794883 L27.3877733,50.1309534 L28.2423918,50.1309534 L28.2423918,38.4794883 L34.074788,38.4794883 L34.074788,50.9489216 L35.1626357,50.9489216 L35.1626357,38.4794883 L36.0139224,38.4794883 L36.0139224,50.1309534 L36.821895,50.1309534 L36.821895,38.4794883 L42.1095344,38.4794883 L42.1095344,50.1309534 L42.9558233,50.1309534 L42.9558233,38.4794883 L44.0503347,38.4794883 L44.0503347,50.9489216 L44.0520006,50.9489216 C39.4973672,54.119173 33.9948237,56 28.0158263,56 C12.5493976,56 0,43.4605979 0,27.9825078 C0,12.5510635 12.5493976,0 28.0158263,0 Z M42.3877436,17.9269969 C43.1424067,17.9269969 43.7854529,17.2822847 43.7854529,16.5292875 C43.7854529,15.7662948 43.1424067,15.1315782 42.3877436,15.1315782 C41.6247509,15.1315782 41.0066934,15.7662948 41.0066934,16.5292875 C41.0066934,17.2822847 41.6247509,17.9269969 42.3877436,17.9269969 Z M38.4978135,9.02430463 C39.2608062,9.02430463 39.8955228,8.42457236 39.8955228,7.62659527 C39.8955228,6.86193664 39.2608062,6.26553622 38.4978135,6.26553622 C37.7448163,6.26553622 37.125093,6.86193664 37.125093,7.62659527 C37.125093,8.42457236 37.7448163,9.02430463 38.4978135,9.02430463 Z M30.724617,11.8297189 C31.4876097,11.8297189 32.1223263,11.1850067 32.1223263,10.422014 C32.1223263,9.66901681 31.4876097,9.02430463 30.724617,9.02430463 C29.9732857,9.02430463 29.3285736,9.66901681 29.3285736,10.422014 C29.3285736,11.1850067 29.9732857,11.8297189 30.724617,11.8297189 Z M27.3644504,18.3884575 C27.7676037,18.3884575 28.0774654,18.0436115 28.0774654,17.6771084 C28.0774654,17.2706232 27.7676037,16.9624275 27.3644504,16.9624275 C26.9946155,16.9624275 26.6497694,17.2706232 26.6497694,17.6771084 C26.6497694,18.0436115 26.9946155,18.3884575 27.3644504,18.3884575 Z M24.3641232,5.14437007 C25.1171203,5.14437007 25.7418414,4.54130596 25.7418414,3.74666072 C25.7418414,2.98366801 25.1171203,2.38560167 24.3641232,2.38560167 C23.6011304,2.38560167 22.9564183,2.98366801 22.9564183,3.74666072 C22.9564183,4.54130596 23.6011304,5.14437007 24.3641232,5.14437007 Z M19.869463,15.8595865 C20.2742823,15.8595865 20.5824781,15.5630522 20.5824781,15.1465715 C20.5824781,14.7784025 20.2742823,14.4335564 19.869463,14.4335564 C19.5012941,14.4335564 19.1581139,14.7784025 19.1581139,15.1465715 C19.1581139,15.5630522 19.5012941,15.8595865 19.869463,15.8595865 Z M15.1965492,9.30084784 C15.9495463,9.30084784 16.5925926,8.7027815 16.5925926,7.93812286 C16.5925926,7.14014577 15.9495463,6.54207943 15.1965492,6.54207943 C14.4335564,6.54207943 13.7871783,7.14014577 13.7871783,7.93812286 C13.7871783,8.7027815 14.4335564,9.30084784 15.1965492,9.30084784 Z M15.1965492,27.0945709 C15.9495463,27.0945709 16.5925926,26.4498587 16.5925926,25.6985274 C16.5925926,24.9355347 15.9495463,24.2991522 15.1965492,24.2991522 C14.4335564,24.2991522 13.7871783,24.9355347 13.7871783,25.6985274 C13.7871783,26.4498587 14.4335564,27.0945709 15.1965492,27.0945709 Z M12.4177897,47.6004165 C13.189112,47.6004165 13.7871783,47.0023501 13.7871783,46.249353 C13.7871783,45.4397144 13.189112,44.8416481 12.4177897,44.8416481 C11.6381377,44.8416481 11.0400714,45.4397144 11.0400714,46.249353 C11.0400714,47.0023501 11.6381377,47.6004165 12.4177897,47.6004165 Z M11.5565075,34.4446229 C11.1416927,34.4446229 10.8434925,34.7528187 10.8434925,35.157638 C10.8434925,35.5607913 11.1416927,35.870653 11.5565075,35.870653 C11.956329,35.870653 12.2695225,35.5607913 12.2695225,35.157638 C12.2695225,34.7528187 11.956329,34.4446229 11.5565075,34.4446229 Z M8.82272795,16.7941693 C9.57572512,16.7941693 10.1854529,16.1961029 10.1854529,15.3964599 C10.1854529,14.6334672 9.57572512,14.0354009 8.82272795,14.0354009 C8.03807824,14.0354009 7.42501859,14.6334672 7.42501859,15.3964599 C7.42501859,16.1961029 8.03807824,16.7941693 8.82272795,16.7941693 Z M9.06262085,23.3645694 C9.43245575,23.3645694 9.77396995,23.0563736 9.77396995,22.6515544 C9.77396995,22.2833854 9.43245575,21.9385393 9.06262085,21.9385393 C8.65780158,21.9385393 8.34960583,22.2833854 8.34960583,22.6515544 C8.34960583,23.0563736 8.65780158,23.3645694 9.06262085,23.3645694 Z M4.07817938,30.6629778 C4.83950617,30.6629778 5.47422282,30.0649115 5.47422282,29.3119143 C5.47422282,28.5472557 4.83950617,27.9025435 4.07817938,27.9025435 C3.32518221,27.9025435 2.70545887,28.5472557 2.70545887,29.3119143 C2.70545887,30.0649115 3.32518221,30.6629778 4.07817938,30.6629778 Z M19.0764837,39.2891269 C18.3118251,39.2891269 17.6787744,39.9321731 17.6787744,40.6851703 C17.6787744,41.448163 18.3118251,42.0478953 19.0764837,42.0478953 C19.8394764,42.0478953 20.4725271,41.448163 20.4725271,40.6851703 C20.4725271,39.9321731 19.8394764,39.2891269 19.0764837,39.2891269 Z" id="Combined-Shape" fill="url(#linearGradient-1)"></path>
                </g>
                <g id="Group-2" transform="translate(72.000000, 1.000000)" fill="#37474F">
                    <path d="M20.4160156,5.6953125 C20.4160156,5.54036381 20.3385424,5.46289062 20.1835938,5.46289062 L11.9492188,5.46289062 C11.7942701,5.46289062 11.7167969,5.54036381 11.7167969,5.6953125 L11.7167969,7.2890625 C11.7167969,7.44401119 11.7942701,7.52148438 11.9492188,7.52148438 L20.1835938,7.52148438 C20.3385424,7.52148438 20.4160156,7.44401119 20.4160156,7.2890625 L20.4160156,5.6953125 Z M10.5546875,9.71289062 C10.0234348,9.71289062 9.56412954,9.51920767 9.17675781,9.13183594 C8.78938608,8.74446421 8.59570312,8.28515891 8.59570312,7.75390625 L8.59570312,5.6953125 C8.59570312,5.54036381 8.51822994,5.46289062 8.36328125,5.46289062 L3.71484375,5.46289062 C3.38281084,5.46289062 3.1005871,5.34668085 2.86816406,5.11425781 C2.63574103,4.88183478 2.51953125,4.59961104 2.51953125,4.26757812 C2.51953125,3.93554521 2.63574103,3.65332147 2.86816406,3.42089844 C3.1005871,3.1884754 3.38281084,3.07226562 3.71484375,3.07226562 L8.36328125,3.07226562 C8.51822994,3.07226562 8.59570312,2.99479244 8.59570312,2.83984375 L8.59570312,2.2421875 C8.59570312,1.82161248 8.75064949,1.45638176 9.06054688,1.14648438 C9.37044426,0.836586992 9.73567498,0.681640625 10.15625,0.681640625 C10.576825,0.681640625 10.9420557,0.836586992 11.2519531,1.14648438 C11.5618505,1.45638176 11.7167969,1.82161248 11.7167969,2.2421875 L11.7167969,2.83984375 C11.7167969,2.99479244 11.7942701,3.07226562 11.9492188,3.07226562 L20.1835938,3.07226562 C20.3385424,3.07226562 20.4160156,2.99479244 20.4160156,2.83984375 L20.4160156,2.27539062 C20.4160156,1.83268008 20.570962,1.45638176 20.8808594,1.14648438 C21.1907568,0.836586992 21.5670551,0.681640625 22.0097656,0.681640625 C22.4524762,0.681640625 22.8287745,0.836586992 23.1386719,1.14648438 C23.4485693,1.45638176 23.6035156,1.83268008 23.6035156,2.27539062 L23.6035156,2.83984375 C23.6035156,2.99479244 23.6809888,3.07226562 23.8359375,3.07226562 L28.5507812,3.07226562 C28.8828142,3.07226562 29.1650379,3.1884754 29.3974609,3.42089844 C29.629884,3.65332147 29.7460938,3.93554521 29.7460938,4.26757812 C29.7460938,4.59961104 29.629884,4.88183478 29.3974609,5.11425781 C29.1650379,5.34668085 28.8828142,5.46289062 28.5507812,5.46289062 L23.8359375,5.46289062 C23.6809888,5.46289062 23.6035156,5.54036381 23.6035156,5.6953125 L23.6035156,7.75390625 C23.6035156,8.28515891 23.4098327,8.74446421 23.0224609,9.13183594 C22.6350892,9.51920767 22.1757839,9.71289062 21.6445312,9.71289062 L10.5546875,9.71289062 Z M7.96484375,21.9316406 C7.80989506,21.9316406 7.73242188,22.0091138 7.73242188,22.1640625 L7.73242188,23.9570312 C7.73242188,24.1119799 7.80989506,24.1894531 7.96484375,24.1894531 L14.0742188,24.1894531 C14.251303,24.1894531 14.3398438,24.1119799 14.3398438,23.9570312 L14.3398438,22.1640625 C14.3398438,22.0091138 14.251303,21.9316406 14.0742188,21.9316406 L7.96484375,21.9316406 Z M7.96484375,17.6152344 C7.80989506,17.6152344 7.73242188,17.6927076 7.73242188,17.8476562 L7.73242188,19.5742188 C7.73242188,19.7291674 7.80989506,19.8066406 7.96484375,19.8066406 L14.0742188,19.8066406 C14.251303,19.8066406 14.3398438,19.7291674 14.3398438,19.5742188 L14.3398438,17.8476562 C14.3398438,17.6927076 14.251303,17.6152344 14.0742188,17.6152344 L7.96484375,17.6152344 Z M24.4667969,17.8476562 C24.4667969,17.6927076 24.3893237,17.6152344 24.234375,17.6152344 L17.7265625,17.6152344 C17.5494783,17.6152344 17.4609375,17.6927076 17.4609375,17.8476562 L17.4609375,19.5742188 C17.4609375,19.7291674 17.5494783,19.8066406 17.7265625,19.8066406 L24.234375,19.8066406 C24.3893237,19.8066406 24.4667969,19.7291674 24.4667969,19.5742188 L24.4667969,17.8476562 Z M24.234375,24.1894531 C24.3893237,24.1894531 24.4667969,24.1119799 24.4667969,23.9570312 L24.4667969,22.1640625 C24.4667969,22.0091138 24.3893237,21.9316406 24.234375,21.9316406 L17.7265625,21.9316406 C17.5494783,21.9316406 17.4609375,22.0091138 17.4609375,22.1640625 L17.4609375,23.9570312 C17.4609375,24.1119799 17.5494783,24.1894531 17.7265625,24.1894531 L24.234375,24.1894531 Z M27.6542969,24.4882812 C27.6542969,25.0195339 27.4606139,25.4788392 27.0732422,25.8662109 C26.6858705,26.2535827 26.2265652,26.4472656 25.6953125,26.4472656 L22.4414062,26.4472656 L22.4248047,26.4804688 C22.4137369,26.5026043 22.4192707,26.5136719 22.4414062,26.5136719 C25.3632959,27.443364 27.8867081,28.3287718 30.0117188,29.1699219 C30.3658872,29.302735 30.5706377,29.5628236 30.6259766,29.9501953 C30.6813154,30.337567 30.5429704,30.641926 30.2109375,30.8632812 C29.6796848,31.2617207 29.126305,31.4609375 28.5507812,31.4609375 C28.1302062,31.4609375 27.6875023,31.3613291 27.2226562,31.1621094 C25.3854075,30.3430949 23.2604287,29.513025 20.8476562,28.671875 C20.4270812,28.5169263 20.1725265,28.2291688 20.0839844,27.8085938 C20.0618488,27.7200516 20.0507812,27.6315109 20.0507812,27.5429688 C20.0507812,27.2109358 20.1725248,26.9342459 20.4160156,26.7128906 L20.515625,26.6132812 C20.5598961,26.5911457 20.5764975,26.5579429 20.5654297,26.5136719 C20.5543619,26.4694008 20.5156253,26.4472656 20.4492188,26.4472656 L11.0859375,26.4472656 C11.0416664,26.4472656 11.0139975,26.463867 11.0029297,26.4970703 C10.9918619,26.5302736 10.9973957,26.5579426 11.0195312,26.5800781 L11.4179688,26.8457031 C11.7721372,27.0670584 11.9492188,27.3880187 11.9492188,27.8085938 C11.9492188,28.2734398 11.7389344,28.6165354 11.3183594,28.8378906 C9.19334875,29.8782604 6.79168006,30.7858034 4.11328125,31.5605469 C3.86979045,31.6269535 3.6263033,31.6601562 3.3828125,31.6601562 C2.71874668,31.6601562 2.09896121,31.3834663 1.5234375,30.8300781 C1.30208223,30.6087229 1.23014284,30.3375667 1.30761719,30.0166016 C1.38509153,29.6956364 1.57877449,29.5019535 1.88867188,29.4355469 C4.96551018,28.5943968 7.51105764,27.6425834 9.52539062,26.5800781 C9.56966168,26.5579426 9.58626308,26.5302736 9.57519531,26.4970703 C9.56412755,26.463867 9.53645855,26.4472656 9.4921875,26.4472656 L6.63671875,26.4472656 C6.10546609,26.4472656 5.64616079,26.2535827 5.25878906,25.8662109 C4.87141733,25.4788392 4.67773438,25.0195339 4.67773438,24.4882812 L4.67773438,17.3164062 C4.67773438,16.7851536 4.87141733,16.3258483 5.25878906,15.9384766 C5.64616079,15.5511048 6.10546609,15.3574219 6.63671875,15.3574219 L14.0742188,15.3574219 C14.251303,15.3574219 14.3398438,15.2799487 14.3398438,15.125 L14.3398438,14.0625 C14.3398438,13.9075513 14.251303,13.8300781 14.0742188,13.8300781 L2.1875,13.8300781 C1.81119604,13.8300781 1.4902357,13.697267 1.22460938,13.4316406 C0.958983047,13.1660143 0.826171875,12.8505878 0.826171875,12.4853516 C0.826171875,12.1201154 0.958983047,11.8046888 1.22460938,11.5390625 C1.4902357,11.2734362 1.81119604,11.140625 2.1875,11.140625 L29.9453125,11.140625 C30.2994809,11.140625 30.6093737,11.2734362 30.875,11.5390625 C31.1406263,11.8046888 31.2734375,12.1201154 31.2734375,12.4853516 C31.2734375,12.8505878 31.1406263,13.1660143 30.875,13.4316406 C30.6093737,13.697267 30.2994809,13.8300781 29.9453125,13.8300781 L17.7265625,13.8300781 C17.5494783,13.8300781 17.4609375,13.9075513 17.4609375,14.0625 L17.4609375,15.125 C17.4609375,15.2799487 17.5494783,15.3574219 17.7265625,15.3574219 L25.6953125,15.3574219 C26.2265652,15.3574219 26.6858705,15.5511048 27.0732422,15.9384766 C27.4606139,16.3258483 27.6542969,16.7851536 27.6542969,17.3164062 L27.6542969,24.4882812 Z M51.1399727,21.9316406 C50.7858042,21.9316406 50.4814453,21.8098971 50.2268867,21.5664062 C49.9723282,21.3229154 49.8450508,21.0185565 49.8450508,20.6533203 C49.8450508,20.2880841 49.9723282,19.9781914 50.2268867,19.7236328 C50.4814453,19.4690742 50.7858042,19.3417969 51.1399727,19.3417969 L70.5638008,19.3417969 C71.0950535,19.3417969 71.5543588,19.5354798 71.9417305,19.9228516 C72.3291022,20.3102233 72.5227852,20.7695286 72.5227852,21.3007812 L72.5227852,31.1953125 C72.5227852,31.6158875 72.3678388,31.9811182 72.0579414,32.2910156 C71.7480441,32.600913 71.3828133,32.7558594 70.9622383,32.7558594 L70.4641914,32.7558594 C70.1764296,32.7558594 69.9274086,32.6507172 69.7171211,32.4404297 C69.5068336,32.2301422 69.4016914,31.9700536 69.4016914,31.6601562 C69.4016914,31.5716141 69.357421,31.5273438 69.2688789,31.5273438 L50.5755196,31.5273438 C50.2213511,31.5273438 49.922526,31.4000664 49.6790352,31.1455078 C49.4355444,30.8909492 49.3138008,30.5865903 49.3138008,30.2324219 C49.3138008,29.8782534 49.4355444,29.5738945 49.6790352,29.3193359 C49.922526,29.0647774 50.2213511,28.9375 50.5755196,28.9375 L69.1360664,28.9375 C69.3131507,28.9375 69.4016914,28.8600268 69.4016914,28.7050781 L69.4016914,26.8457031 C69.4016914,26.6907544 69.3131507,26.6132812 69.1360664,26.6132812 L51.8040352,26.6132812 C51.4720023,26.6132812 51.1842447,26.4915377 50.9407539,26.2480469 C50.6972631,26.0045561 50.5755196,25.7112647 50.5755196,25.3681641 C50.5755196,25.0250634 50.6972631,24.7373058 50.9407539,24.5048828 C51.1842447,24.2724598 51.4720023,24.15625 51.8040352,24.15625 L69.1360664,24.15625 C69.3131507,24.15625 69.4016914,24.0677092 69.4016914,23.890625 L69.4016914,22.1972656 C69.4016914,22.0201814 69.3131507,21.9316406 69.1360664,21.9316406 L51.1399727,21.9316406 Z M51.4388008,17.4160156 C51.151039,17.4160156 50.902018,17.3164072 50.6917305,17.1171875 C50.481443,16.9179678 50.3763008,16.6689468 50.3763008,16.3701172 C50.3763008,16.0712876 50.481443,15.8222666 50.6917305,15.6230469 C50.902018,15.4238271 51.151039,15.3242188 51.4388008,15.3242188 L57.2493477,15.3242188 C57.5371095,15.3242188 57.7861305,15.4238271 57.996418,15.6230469 C58.2067055,15.8222666 58.3118477,16.0712876 58.3118477,16.3701172 C58.3118477,16.6689468 58.2067055,16.9179678 57.996418,17.1171875 C57.7861305,17.3164072 57.5371095,17.4160156 57.2493477,17.4160156 L51.4388008,17.4160156 Z M51.4221992,13.2490234 C51.2119117,13.0387359 51.1067696,12.7841812 51.1067696,12.4853516 C51.1067696,12.1865219 51.2119117,11.9319672 51.4221992,11.7216797 C51.6324868,11.5113922 51.8925753,11.40625 52.2024727,11.40625 L57.1829414,11.40625 C57.4928388,11.40625 57.7529274,11.5113922 57.9632149,11.7216797 C58.1735024,11.9319672 58.2786446,12.1865219 58.2786446,12.4853516 C58.2786446,12.7841812 58.1735024,13.0387359 57.9632149,13.2490234 C57.7529274,13.4593109 57.4928388,13.5644531 57.1829414,13.5644531 L52.2024727,13.5644531 C51.8925753,13.5644531 51.6324868,13.4593109 51.4221992,13.2490234 Z M65.2513008,17.4160156 C64.963539,17.4160156 64.714518,17.3164072 64.5042305,17.1171875 C64.293943,16.9179678 64.1888008,16.6689468 64.1888008,16.3701172 C64.1888008,16.0712876 64.293943,15.8222666 64.5042305,15.6230469 C64.714518,15.4238271 64.963539,15.3242188 65.2513008,15.3242188 L71.2610664,15.3242188 C71.5488283,15.3242188 71.7978492,15.4238271 72.0081367,15.6230469 C72.2184243,15.8222666 72.3235664,16.0712876 72.3235664,16.3701172 C72.3235664,16.6689468 72.2184243,16.9179678 72.0081367,17.1171875 C71.7978492,17.3164072 71.5488283,17.4160156 71.2610664,17.4160156 L65.2513008,17.4160156 Z M64.5042305,13.2490234 C64.293943,13.0387359 64.1888008,12.7841812 64.1888008,12.4853516 C64.1888008,12.1865219 64.293943,11.9319672 64.5042305,11.7216797 C64.714518,11.5113922 64.9746066,11.40625 65.2845039,11.40625 L70.3977852,11.40625 C70.7076826,11.40625 70.9677711,11.5113922 71.1780586,11.7216797 C71.3883461,11.9319672 71.4934883,12.1865219 71.4934883,12.4853516 C71.4934883,12.7841812 71.3883461,13.0387359 71.1780586,13.2490234 C70.9677711,13.4593109 70.7076826,13.5644531 70.3977852,13.5644531 L65.2845039,13.5644531 C64.9746066,13.5644531 64.714518,13.4593109 64.5042305,13.2490234 Z M62.7610664,6.92382812 C62.7610664,7.10091234 62.8496072,7.18945312 63.0266914,7.18945312 L73.8841133,7.18945312 C74.4375015,7.18945312 74.9023406,7.37760229 75.2786446,7.75390625 C75.6549485,8.13021021 75.8430977,8.59504932 75.8430977,9.1484375 L75.8430977,13.1660156 C75.8430977,13.5644551 75.6992189,13.9075506 75.4114571,14.1953125 C75.1236952,14.4830744 74.7805997,14.6269531 74.3821602,14.6269531 C73.9837207,14.6269531 73.6406252,14.4830744 73.3528633,14.1953125 C73.0651015,13.9075506 72.9212227,13.5644551 72.9212227,13.1660156 L72.9212227,9.87890625 C72.9212227,9.72395756 72.8437495,9.64648438 72.6888008,9.64648438 L63.0266914,9.64648438 C62.8496072,9.64648438 62.7610664,9.72395756 62.7610664,9.87890625 L62.7610664,16.5859375 C62.7610664,17.0065125 62.6116539,17.3662094 62.3128242,17.6650391 C62.0139946,17.9638687 61.6542977,18.1132812 61.2337227,18.1132812 C60.8131477,18.1132812 60.4534507,17.9638687 60.1546211,17.6650391 C59.8557915,17.3662094 59.7063789,17.0065125 59.7063789,16.5859375 L59.7063789,9.87890625 C59.7063789,9.72395756 59.6178382,9.64648438 59.4407539,9.64648438 L49.9114571,9.64648438 C49.7565084,9.64648438 49.6790352,9.72395756 49.6790352,9.87890625 L49.6790352,13.2324219 C49.6790352,13.6087258 49.5406902,13.93522 49.2639961,14.2119141 C48.987302,14.4886082 48.6552741,14.6269531 48.2679024,14.6269531 C47.8805306,14.6269531 47.5485027,14.4886082 47.2718086,14.2119141 C46.9951145,13.93522 46.8567696,13.6087258 46.8567696,13.2324219 L46.8567696,9.1484375 C46.8567696,8.59504932 47.0449187,8.13021021 47.4212227,7.75390625 C47.7975267,7.37760229 48.2623658,7.18945312 48.8157539,7.18945312 L59.4407539,7.18945312 C59.6178382,7.18945312 59.7063789,7.10091234 59.7063789,6.92382812 L59.7063789,5.52929688 C59.7063789,5.37434818 59.6178382,5.296875 59.4407539,5.296875 L50.2102852,5.296875 C49.8561167,5.296875 49.5517578,5.16959763 49.2971992,4.91503906 C49.0426407,4.6604805 48.9153633,4.35612156 48.9153633,4.00195312 C48.9153633,3.64778469 49.0426407,3.34895955 49.2971992,3.10546875 C49.5517578,2.86197795 49.8561167,2.74023438 50.2102852,2.74023438 L72.3899727,2.74023438 C72.7441411,2.74023438 73.0485001,2.86197795 73.3030586,3.10546875 C73.5576172,3.34895955 73.6848946,3.64778469 73.6848946,4.00195312 C73.6848946,4.35612156 73.5576172,4.6604805 73.3030586,4.91503906 C73.0485001,5.16959763 72.7441411,5.296875 72.3899727,5.296875 L63.0266914,5.296875 C62.8496072,5.296875 62.7610664,5.37434818 62.7610664,5.52929688 L62.7610664,6.92382812 Z M99.6940079,11.4726562 C99.7161434,11.3177076 99.6497378,11.2402344 99.4947891,11.2402344 L96.9049454,11.2402344 C96.7499967,11.2402344 96.6614559,11.3177076 96.6393204,11.4726562 C96.0859322,14.2174616 95.5436199,16.6966035 95.0123672,18.9101562 C94.9902317,19.0651049 95.0455697,19.1979161 95.1783829,19.3085938 C95.8867197,19.8619819 96.6725192,20.5260378 97.5358047,21.3007812 C97.6686179,21.4114589 97.7571587,21.3893237 97.8014297,21.234375 C98.7311219,18.4452986 99.361975,15.1914248 99.6940079,11.4726562 Z M100.026039,8.31835938 C100.955731,8.31835938 101.553382,8.33496077 101.819008,8.36816406 C102.084634,8.40136735 102.294919,8.51757713 102.449867,8.71679688 C102.604816,8.91601662 102.682289,9.13736857 102.682289,9.38085938 C102.350256,15.0918254 101.520186,19.751284 100.192055,23.359375 C100.125648,23.5143237 100.158851,23.6582025 100.291664,23.7910156 C101.376305,24.8092499 102.283848,25.7499957 103.01432,26.6132812 C103.324218,26.9674497 103.479164,27.3769508 103.479164,27.8417969 C103.479164,28.3287785 103.31315,28.7604148 102.981117,29.1367188 C102.737626,29.4244806 102.427734,29.5683594 102.05143,29.5683594 L102.018227,29.5683594 C101.619787,29.5462238 101.287759,29.3802099 101.022133,29.0703125 C100.468745,28.3398401 99.7825536,27.5429731 98.9635391,26.6796875 C98.830726,26.5690099 98.7311176,26.5800775 98.664711,26.7128906 C97.5357991,28.7272236 96.0970114,30.4094985 94.3483047,31.7597656 C94.1048139,31.9368498 93.828124,32.0253906 93.5182266,32.0253906 C93.4296845,32.0253906 93.3300761,32.014323 93.2193985,31.9921875 C92.7988235,31.9036454 92.4667955,31.6822934 92.2233047,31.328125 C92.0683561,31.1289053 91.9742815,30.8964857 91.9410782,30.6308594 C91.9078749,30.365233 91.9410777,30.1162121 92.0406876,29.8837891 C92.1402974,29.651366 92.3007776,29.4576831 92.5221329,29.3027344 C94.0494843,28.151687 95.3443932,26.5579529 96.4068985,24.5214844 C96.4954406,24.3665357 96.4733054,24.2337245 96.3404922,24.1230469 C96.2962212,24.0566403 95.6321653,23.4479224 94.3483047,22.296875 C94.2818982,22.2526039 94.2376278,22.2747391 94.2154922,22.3632812 C94.1490857,22.6289076 93.9886055,22.8115229 93.7340469,22.9111328 C93.4794884,23.0107427 93.241535,22.9941413 93.0201797,22.8613281 L92.6881485,22.6621094 C92.3118445,22.4628896 92.0351546,22.1640645 91.8580704,21.765625 C91.7473927,21.4999987 91.6920547,21.2343763 91.6920547,20.96875 C91.6920547,20.8138013 91.7141899,20.6588549 91.758461,20.5039062 C92.3782558,17.9361851 93.0201764,14.9257985 93.6842422,11.4726562 C93.7285133,11.3177076 93.6621077,11.2402344 93.4850235,11.2402344 L92.555336,11.2402344 C92.1568965,11.2402344 91.813801,11.0963556 91.5260391,10.8085938 C91.2382773,10.5208319 91.0943985,10.1722026 91.0943985,9.76269531 C91.0943985,9.35318806 91.2382773,9.01009253 91.5260391,8.73339844 C91.813801,8.45670435 92.1568965,8.31835938 92.555336,8.31835938 L94.0494766,8.31835938 C94.2044253,8.31835938 94.3040337,8.22981859 94.3483047,8.05273438 C94.7024732,6.14907902 94.9902307,4.45573658 95.211586,2.97265625 C95.2779926,2.55208123 95.4772093,2.2089857 95.8092422,1.94335938 C96.0970041,1.7220041 96.4179644,1.61132812 96.7721329,1.61132812 L96.9713516,1.61132812 C97.3697911,1.65559918 97.6907514,1.84374834 97.9342422,2.17578125 C98.133462,2.44140758 98.2330704,2.71809752 98.2330704,3.00585938 C98.2330704,3.09440148 98.2220028,3.18294227 98.1998672,3.27148438 C97.9563764,4.71029365 97.6686189,6.30402771 97.336586,8.05273438 C97.2923149,8.22981859 97.3587205,8.31835938 97.5358047,8.31835938 L100.026039,8.31835938 Z M119.117836,19.8066406 C119.117836,19.6516919 119.029295,19.5742188 118.852211,19.5742188 L105.902992,19.5742188 C105.725908,19.5742188 105.637367,19.6516919 105.637367,19.8066406 L105.637367,21.3671875 C105.637367,21.5221362 105.725908,21.5996094 105.902992,21.5996094 L118.852211,21.5996094 C119.029295,21.5996094 119.117836,21.5221362 119.117836,21.3671875 L119.117836,19.8066406 Z M104.940102,22.4960938 C104.408849,22.4960938 103.949544,22.3024108 103.562172,21.9150391 C103.1748,21.5276673 102.981117,21.068362 102.981117,20.5371094 L102.981117,19.0097656 C102.981117,18.4563774 103.1748,17.9915383 103.562172,17.6152344 C103.949544,17.2389304 104.408849,17.0507812 104.940102,17.0507812 L119.914711,17.0507812 C120.445964,17.0507812 120.905269,17.2389304 121.292641,17.6152344 C121.680012,17.9915383 121.873695,18.4563774 121.873695,19.0097656 L121.873695,20.5371094 C121.873695,21.068362 121.680012,21.5276673 121.292641,21.9150391 C120.905269,22.3024108 120.445964,22.4960938 119.914711,22.4960938 L119.48307,22.4960938 C119.372393,22.4960938 119.317055,22.5514317 119.317055,22.6621094 C119.317055,23.0605489 119.173176,23.4036444 118.885414,23.6914062 C118.597652,23.9791681 118.254557,24.1230469 117.856117,24.1230469 L114.137367,24.1230469 C113.960283,24.1230469 113.871742,24.2005201 113.871742,24.3554688 L113.871742,29.6679688 C113.871742,30.4205767 113.777668,30.990558 113.589516,31.3779297 C113.401364,31.7653014 113.030599,32.0696604 112.477211,32.2910156 C111.79101,32.5123709 110.639979,32.6451821 109.024086,32.6894531 L108.990883,32.6894531 C108.614579,32.6894531 108.271483,32.556642 107.961586,32.2910156 C107.651689,32.0475248 107.430337,31.7265645 107.297523,31.328125 C107.186846,31.0182276 107.225582,30.7304701 107.413734,30.4648438 C107.601886,30.1992174 107.850907,30.0664062 108.160805,30.0664062 L108.990883,30.0664062 C109.588542,30.0664062 110.009111,30.0553387 110.252602,30.0332031 C110.473957,30.0332031 110.623369,30.0000003 110.700844,29.9335938 C110.778318,29.8671872 110.817055,29.7454436 110.817055,29.5683594 L110.817055,24.3554688 C110.817055,24.2005201 110.728514,24.1230469 110.55143,24.1230469 L106.865883,24.1230469 C106.467443,24.1230469 106.124348,23.9791681 105.836586,23.6914062 C105.548824,23.4036444 105.404945,23.0605489 105.404945,22.6621094 C105.404945,22.5514317 105.349607,22.4960938 105.23893,22.4960938 L104.940102,22.4960938 Z M116.461586,13.3320312 C116.616535,13.3320312 116.694008,13.2545581 116.694008,13.0996094 L116.694008,11.0410156 C116.694008,10.8639314 116.616535,10.7753906 116.461586,10.7753906 L108.260414,10.7753906 C108.105465,10.7753906 108.027992,10.8639314 108.027992,11.0410156 L108.027992,13.0996094 C108.027992,13.2545581 108.105465,13.3320312 108.260414,13.3320312 L116.461586,13.3320312 Z M105.205727,10.609375 C105.205727,10.0559868 105.39941,9.59114771 105.786781,9.21484375 C106.174153,8.83853979 106.633458,8.65039062 107.164711,8.65039062 L117.723305,8.65039062 C118.276693,8.65039062 118.741532,8.83853979 119.117836,9.21484375 C119.49414,9.59114771 119.682289,10.0559868 119.682289,10.609375 L119.682289,13.5976562 C119.682289,14.1289089 119.49414,14.5882142 119.117836,14.9755859 C118.741532,15.3629577 118.276693,15.5566406 117.723305,15.5566406 L107.164711,15.5566406 C106.633458,15.5566406 106.174153,15.3629577 105.786781,14.9755859 C105.39941,14.5882142 105.205727,14.1289089 105.205727,13.5976562 L105.205727,10.609375 Z M113.838539,4.20117188 C113.838539,4.37825609 113.92708,4.46679688 114.104164,4.46679688 L120.711586,4.46679688 C121.08789,4.46679688 121.403316,4.59407425 121.657875,4.84863281 C121.912434,5.10319138 122.039711,5.41308411 122.039711,5.77832031 C122.039711,6.14355651 121.912434,6.45344925 121.657875,6.70800781 C121.403316,6.96256638 121.08789,7.08984375 120.711586,7.08984375 L104.541664,7.08984375 C104.187496,7.08984375 103.883137,6.96256638 103.628578,6.70800781 C103.37402,6.45344925 103.246742,6.14355651 103.246742,5.77832031 C103.246742,5.41308411 103.37402,5.10319138 103.628578,4.84863281 C103.883137,4.59407425 104.187496,4.46679688 104.541664,4.46679688 L110.55143,4.46679688 C110.728514,4.46679688 110.817055,4.37825609 110.817055,4.20117188 L110.817055,2.97265625 C110.817055,2.57421676 110.966467,2.22558743 111.265297,1.92675781 C111.564127,1.62792819 111.91829,1.47851562 112.327797,1.47851562 C112.737304,1.47851562 113.091467,1.62792819 113.390297,1.92675781 C113.689127,2.22558743 113.838539,2.57421676 113.838539,2.97265625 L113.838539,4.20117188 Z" id="黃雪婷"></path>
                    <path d="M5.18359375,50.1777344 C3.92577496,50.1777344 2.85937938,49.763025 1.984375,48.9335938 C1.90234334,48.8606767 1.86132812,48.7649746 1.86132812,48.6464844 C1.86132812,48.5371088 1.89778609,48.4414067 1.97070312,48.359375 C2.04362016,48.286458 2.13248646,48.2477214 2.23730469,48.2431641 C2.34212292,48.2386067 2.43098922,48.2727861 2.50390625,48.3457031 C3.26953508,49.0657588 4.16275531,49.4257812 5.18359375,49.4257812 C5.93099332,49.4257812 6.52571394,49.24577 6.96777344,48.8857422 C7.40983294,48.5257143 7.63085938,48.0540394 7.63085938,47.4707031 C7.63085938,47.1699204 7.58984416,46.9101573 7.5078125,46.6914062 C7.42578084,46.4726552 7.28906346,46.2835294 7.09765625,46.1240234 C6.90624904,45.9645174 6.72623782,45.8369145 6.55761719,45.7412109 C6.38899655,45.6455073 6.14518389,45.5292976 5.82617188,45.3925781 L4.30859375,44.7226562 C4.02604025,44.5950514 3.78450621,44.4720058 3.58398438,44.3535156 C3.38346254,44.2350254 3.16927197,44.0732432 2.94140625,43.8681641 C2.71354053,43.6630849 2.53808655,43.4192722 2.41503906,43.1367188 C2.29199157,42.8541653 2.23046875,42.535158 2.23046875,42.1796875 C2.23046875,41.4231733 2.51529663,40.8056665 3.08496094,40.3271484 C3.65462524,39.8486304 4.37694875,39.609375 5.25195312,39.609375 C6.27279156,39.609375 7.14778281,39.9374967 7.87695312,40.59375 C7.95898479,40.6575524 8,40.7418615 8,40.8466797 C8,40.9514979 7.96809928,41.0403642 7.90429688,41.1132812 C7.84049447,41.1861983 7.75846404,41.2249349 7.65820312,41.2294922 C7.55794221,41.2340495 7.47135453,41.2044274 7.3984375,41.140625 C6.78775736,40.6210912 6.07226973,40.3613281 5.25195312,40.3613281 C4.60481447,40.3613281 4.08300979,40.5208317 3.68652344,40.8398438 C3.29003708,41.1588558 3.09179688,41.5781224 3.09179688,42.0976562 C3.09179688,42.325522 3.13053347,42.5328767 3.20800781,42.7197266 C3.28548216,42.9065765 3.37434846,43.0615228 3.47460938,43.1845703 C3.57487029,43.3076178 3.71614492,43.4283848 3.8984375,43.546875 C4.08073008,43.6653652 4.22884058,43.7519529 4.34277344,43.8066406 C4.4567063,43.8613284 4.61848854,43.9342443 4.828125,44.0253906 L6.34570312,44.6953125 C6.67382977,44.8411466 6.95182178,44.9846998 7.1796875,45.1259766 C7.40755322,45.2672533 7.62857966,45.4427073 7.84277344,45.6523438 C8.05696722,45.8619802 8.21874945,46.1149074 8.328125,46.4111328 C8.43750055,46.7073583 8.4921875,47.0423158 8.4921875,47.4160156 C8.4921875,48.2089883 8.18685201,48.8675104 7.57617188,49.3916016 C6.96549174,49.9156927 6.16797367,50.1777344 5.18359375,50.1777344 Z M12.286911,49.8837891 C12.2048794,49.9612634 12.1091772,50 11.9998016,50 C11.8904261,50 11.7947239,49.9612634 11.7126923,49.8837891 C11.6306606,49.8063147 11.5896454,49.7083339 11.5896454,49.5898438 L11.5896454,42.8769531 C11.5896454,42.7858068 11.6238247,42.706055 11.6921844,42.6376953 C11.7605442,42.5693356 11.840296,42.5351562 11.9314423,42.5351562 C12.0225885,42.5351562 12.104619,42.567057 12.177536,42.6308594 C12.250453,42.6946618 12.2914683,42.7766922 12.3005829,42.8769531 L12.3689423,43.65625 C12.3689423,43.6653646 12.3734995,43.6699219 12.3826141,43.6699219 C12.3917288,43.6699219 12.396286,43.6653646 12.396286,43.65625 C12.8337882,43.2369771 13.2507762,42.9134126 13.6472626,42.6855469 C14.0437489,42.4576812 14.4744087,42.34375 14.9392548,42.34375 C15.7139982,42.34375 16.2859326,42.5830054 16.6550751,43.0615234 C17.0242175,43.5400415 17.208786,44.262365 17.208786,45.2285156 L17.208786,49.5898438 C17.208786,49.7083339 17.1700494,49.8063147 17.0925751,49.8837891 C17.0151007,49.9612634 16.9193986,50 16.8054657,50 C16.6915328,50 16.5958307,49.9612634 16.5183563,49.8837891 C16.440882,49.8063147 16.4021454,49.7083339 16.4021454,49.5898438 L16.4021454,45.3378906 C16.4021454,44.5540325 16.2699852,43.9798195 16.005661,43.6152344 C15.7413368,43.2506492 15.3266274,43.0683594 14.7615204,43.0683594 C14.3604767,43.0683594 13.9890612,43.1686188 13.6472626,43.3691406 C13.305464,43.5696625 12.9158194,43.8932269 12.4783173,44.3398438 C12.4327441,44.3854169 12.4099579,44.4446611 12.4099579,44.5175781 L12.4099579,49.5898438 C12.4099579,49.7083339 12.3689427,49.8063147 12.286911,49.8837891 Z M26.1372986,49.125 C25.4856026,49.8268264 24.6880846,50.1777344 23.7447205,50.1777344 C22.8013564,50.1777344 22.0015597,49.8268264 21.3453064,49.125 C20.6890531,48.4231736 20.3609314,47.4752664 20.3609314,46.28125 C20.3609314,45.078119 20.6890531,44.1210973 21.3453064,43.4101562 C22.0015597,42.6992152 22.8013564,42.34375 23.7447205,42.34375 C24.6880846,42.34375 25.4856026,42.6992152 26.1372986,43.4101562 C26.7889946,44.1210973 27.1148376,45.078119 27.1148376,46.28125 C27.1148376,47.4752664 26.7889946,48.4231736 26.1372986,49.125 Z M21.933197,48.5849609 C22.4071577,49.1819691 23.0109928,49.4804688 23.7447205,49.4804688 C24.4784481,49.4804688 25.0822832,49.1819691 25.5562439,48.5849609 C26.0302046,47.9879527 26.2671814,47.2177782 26.2671814,46.2744141 C26.2671814,45.33105 26.0302046,44.5585968 25.5562439,43.9570312 C25.0822832,43.3554657 24.4784481,43.0546875 23.7447205,43.0546875 C23.0109928,43.0546875 22.4071577,43.3554657 21.933197,43.9570312 C21.4592363,44.5585968 21.2222595,45.33105 21.2222595,46.2744141 C21.2222595,47.2177782 21.4592363,47.9879527 21.933197,48.5849609 Z M32.4066315,49.8701172 C32.2926986,49.9567062 32.1628171,50 32.016983,50 C31.871149,50 31.7412675,49.9567062 31.6273346,49.8701172 C31.5134017,49.7835282 31.4336499,49.6718757 31.3880768,49.5351562 L29.4740143,42.9589844 C29.455785,42.9225259 29.4466705,42.8906251 29.4466705,42.8632812 C29.4466705,42.7903642 29.4694568,42.7265628 29.5150299,42.671875 C29.5788323,42.5807287 29.66542,42.5351562 29.7747955,42.5351562 C29.9024003,42.5351562 30.0186101,42.5738928 30.1234283,42.6513672 C30.2282466,42.7288415 30.2988839,42.8313796 30.3353424,42.9589844 L31.5111237,47.2382812 C31.821021,48.5507878 31.9805247,49.2161457 31.9896393,49.234375 C31.9896393,49.2617189 32.0010324,49.2753906 32.023819,49.2753906 C32.0466055,49.2753906 32.0625559,49.2617189 32.0716705,49.234375 C32.1354729,48.98828 32.3086483,48.3229221 32.5912018,47.2382812 L33.8079987,42.9726562 C33.8444572,42.8450514 33.9150945,42.7402348 34.0199127,42.6582031 C34.124731,42.5761715 34.2432194,42.5351562 34.3753815,42.5351562 C34.5075436,42.5351562 34.626032,42.5761715 34.7308502,42.6582031 C34.8356685,42.7402348 34.9063058,42.8450514 34.9427643,42.9726562 L36.1458893,47.2382812 C36.3555257,48.0677125 36.5378156,48.7376277 36.6927643,49.2480469 C36.6927643,49.2662761 36.7018788,49.2753906 36.720108,49.2753906 C36.7383373,49.2753906 36.752009,49.2662761 36.7611237,49.2480469 C36.8249261,48.9837226 36.9206282,48.6054712 37.048233,48.1132812 C37.1758378,47.6210913 37.2487538,47.3294275 37.266983,47.2382812 L38.4427643,42.9179688 C38.4701082,42.8085932 38.531631,42.7174483 38.6273346,42.6445312 C38.7230382,42.5716142 38.8301335,42.5351562 38.9486237,42.5351562 C39.0488846,42.5351562 39.1263578,42.5761715 39.1810455,42.6582031 C39.2266187,42.7128909 39.2494049,42.7721351 39.2494049,42.8359375 C39.2494049,42.8632814 39.2448477,42.8906249 39.235733,42.9179688 L37.3900299,49.4941406 C37.3444568,49.6399747 37.2601477,49.7607417 37.1371002,49.8564453 C37.0140527,49.9521489 36.8750567,50 36.720108,50 C36.5651593,50 36.4261633,49.9521489 36.3031158,49.8564453 C36.1800684,49.7607417 36.0957593,49.6399747 36.0501862,49.4941406 L34.9290924,45.5019531 C34.8561754,45.2558581 34.7627518,44.8981143 34.648819,44.4287109 C34.5348861,43.9593075 34.4460198,43.6152355 34.3822174,43.3964844 C34.3731028,43.3782551 34.3571524,43.3691406 34.3343658,43.3691406 C34.3115793,43.3691406 34.3001862,43.3782551 34.3001862,43.3964844 C34.0996643,44.2806034 33.90826,44.9915338 33.7259674,45.5292969 L32.6322174,49.5214844 C32.5957589,49.6673184 32.5205643,49.7835282 32.4066315,49.8701172 Z M44.0285034,50.1777344 C43.153499,50.1777344 42.3331947,49.9134141 41.5675659,49.3847656 C41.467305,49.3118486 41.4171753,49.2115892 41.4171753,49.0839844 C41.4171753,49.0019527 41.4445188,48.9290368 41.4992065,48.8652344 C41.5538943,48.7832027 41.6313675,48.7376303 41.7316284,48.7285156 C41.8318893,48.719401 41.918477,48.7421872 41.991394,48.796875 C42.6294181,49.2708357 43.3221195,49.5078125 44.069519,49.5078125 C44.6072821,49.5078125 45.0265488,49.3733737 45.3273315,49.1044922 C45.6281143,48.8356106 45.7785034,48.500653 45.7785034,48.0996094 C45.7785034,47.8899729 45.7283737,47.6985686 45.6281128,47.5253906 C45.5278519,47.3522127 45.3797414,47.2018236 45.1837769,47.0742188 C44.9878123,46.9466139 44.8009652,46.8417973 44.62323,46.7597656 C44.4454947,46.677734 44.2244683,46.5911463 43.960144,46.5 C43.6775905,46.3997391 43.4520069,46.31543 43.2833862,46.2470703 C43.1147656,46.1787106 42.9119681,46.0784512 42.6749878,45.9462891 C42.4380074,45.8141269 42.253439,45.6819668 42.1212769,45.5498047 C41.9891147,45.4176426 41.872905,45.2467458 41.772644,45.0371094 C41.6723831,44.8274729 41.6222534,44.5996106 41.6222534,44.3535156 C41.6222534,43.7884086 41.8432799,43.3121764 42.2853394,42.9248047 C42.7273989,42.537433 43.3266767,42.34375 44.0831909,42.34375 C44.7303296,42.34375 45.3592295,42.5397116 45.9699097,42.9316406 C46.0428267,42.9863284 46.0861205,43.061523 46.0997925,43.1572266 C46.1134644,43.2529302 46.0929568,43.3395178 46.038269,43.4169922 C45.9835813,43.4944665 45.9083867,43.540039 45.8126831,43.5537109 C45.7169795,43.5673829 45.6281132,43.5514325 45.5460815,43.5058594 C45.0538916,43.1868474 44.5571518,43.0273438 44.0558472,43.0273438 C43.5271987,43.0273438 43.126161,43.1503894 42.8527222,43.3964844 C42.5792833,43.6425794 42.4425659,43.9479148 42.4425659,44.3125 C42.4425659,44.4765633 42.4790239,44.6246738 42.5519409,44.7568359 C42.6248579,44.8889981 42.7046098,44.998372 42.7911987,45.0849609 C42.8777877,45.1715499 43.0145051,45.2626948 43.201355,45.3583984 C43.3882049,45.454102 43.5363154,45.5247394 43.6456909,45.5703125 C43.7550665,45.6158856 43.9327991,45.6842443 44.178894,45.7753906 C44.2153526,45.7845053 44.2654823,45.8027342 44.3292847,45.8300781 C44.6209528,45.9394537 44.8442579,46.0260413 44.9992065,46.0898438 C45.1541552,46.1536462 45.3501168,46.2539056 45.5870972,46.390625 C45.8240775,46.5273444 46.0018101,46.6640618 46.1203003,46.8007812 C46.2387905,46.9375007 46.3458858,47.1152333 46.4415894,47.3339844 C46.537293,47.5527355 46.585144,47.7942695 46.585144,48.0585938 C46.585144,48.6601593 46.3572817,49.163735 45.9015503,49.5693359 C45.4458188,49.9749369 44.8214761,50.1777344 44.0285034,50.1777344 Z M51.6923676,50.1777344 C50.9996558,50.1777344 50.5074732,49.9794942 50.2158051,49.5830078 C49.9241369,49.1865215 49.7783051,48.6145871 49.7783051,47.8671875 L49.7783051,43.328125 C49.7783051,43.255208 49.7418471,43.21875 49.6689301,43.21875 L48.9169769,43.21875 C48.8349453,43.21875 48.764308,43.1891279 48.7050629,43.1298828 C48.6458178,43.0706377 48.6161957,42.9977218 48.6161957,42.9111328 C48.6161957,42.8245438 48.6458178,42.7516279 48.7050629,42.6923828 C48.764308,42.6331377 48.8349453,42.5989584 48.9169769,42.5898438 L49.6962738,42.5488281 C49.7691908,42.5397135 49.8056488,42.5032555 49.8056488,42.4394531 L49.8876801,40.7304688 C49.8876801,40.6302078 49.9218594,40.5481774 49.9902191,40.484375 C50.0585788,40.4205726 50.1406093,40.3886719 50.2363129,40.3886719 C50.3320165,40.3886719 50.4140469,40.4205726 50.4824066,40.484375 C50.5507663,40.5481774 50.5849457,40.6302078 50.5849457,40.7304688 L50.5849457,42.4394531 C50.5849457,42.5032555 50.6214036,42.5351562 50.6943207,42.5351562 L52.3896332,42.5351562 C52.4807795,42.5351562 52.5605313,42.5693356 52.628891,42.6376953 C52.6972507,42.706055 52.7314301,42.7880855 52.7314301,42.8837891 C52.7314301,42.9794927 52.6972507,43.0592445 52.628891,43.1230469 C52.5605313,43.1868493 52.4807795,43.21875 52.3896332,43.21875 L50.6943207,43.21875 C50.6214036,43.21875 50.5849457,43.255208 50.5849457,43.328125 L50.5849457,47.921875 C50.5849457,48.4322942 50.6760906,48.8196601 50.8583832,49.0839844 C51.0406758,49.3483086 51.3642402,49.4804688 51.8290863,49.4804688 C52.0022643,49.4804688 52.2027831,49.448568 52.4306488,49.3847656 C52.5217951,49.3574217 52.6061041,49.3642576 52.6835785,49.4052734 C52.7610528,49.4462893 52.8134612,49.5078121 52.8408051,49.5898438 C52.8499197,49.6263023 52.8544769,49.658203 52.8544769,49.6855469 C52.8544769,49.7402346 52.8408052,49.7903644 52.8134613,49.8359375 C52.7770028,49.9179692 52.7132013,49.9726561 52.6220551,50 C52.2392406,50.1184902 51.9293479,50.1777344 51.6923676,50.1777344 Z M60.6208801,49.125 C59.9691842,49.8268264 59.1716661,50.1777344 58.228302,50.1777344 C57.2849379,50.1777344 56.4851412,49.8268264 55.8288879,49.125 C55.1726347,48.4231736 54.8445129,47.4752664 54.8445129,46.28125 C54.8445129,45.078119 55.1726347,44.1210973 55.8288879,43.4101562 C56.4851412,42.6992152 57.2849379,42.34375 58.228302,42.34375 C59.1716661,42.34375 59.9691842,42.6992152 60.6208801,43.4101562 C61.2725761,44.1210973 61.5984192,45.078119 61.5984192,46.28125 C61.5984192,47.4752664 61.2725761,48.4231736 60.6208801,49.125 Z M56.4167786,48.5849609 C56.8907393,49.1819691 57.4945744,49.4804688 58.228302,49.4804688 C58.9620296,49.4804688 59.5658647,49.1819691 60.0398254,48.5849609 C60.5137861,47.9879527 60.7507629,47.2177782 60.7507629,46.2744141 C60.7507629,45.33105 60.5137861,44.5585968 60.0398254,43.9570312 C59.5658647,43.3554657 58.9620296,43.0546875 58.228302,43.0546875 C57.4945744,43.0546875 56.8907393,43.3554657 56.4167786,43.9570312 C55.9428179,44.5585968 55.7058411,45.33105 55.7058411,46.2744141 C55.7058411,47.2177782 55.9428179,47.9879527 56.4167786,48.5849609 Z M65.5572052,53.2539062 C65.4751735,53.3359379 65.3794714,53.3769531 65.2700958,53.3769531 C65.1607203,53.3769531 65.0650181,53.3359379 64.9829865,53.2539062 C64.9009548,53.1718746 64.8599396,53.0761724 64.8599396,52.9667969 L64.8599396,42.9179688 C64.8599396,42.8177078 64.8941189,42.7356774 64.9624786,42.671875 C65.0308384,42.6080726 65.1105902,42.5761719 65.2017365,42.5761719 C65.2928827,42.5761719 65.3749132,42.6080726 65.4478302,42.671875 C65.5207472,42.7356774 65.5617624,42.8131506 65.5708771,42.9042969 L65.6392365,43.4785156 C65.6392365,43.4876303 65.6437937,43.4921875 65.6529083,43.4921875 C65.662023,43.4921875 65.6711374,43.4876303 65.6802521,43.4785156 C66.6281735,42.7493453 67.453035,42.3847656 68.1548615,42.3847656 C69.1301267,42.3847656 69.8729579,42.7242805 70.3833771,43.4033203 C70.8937963,44.0823602 71.1490021,45.0097597 71.1490021,46.1855469 C71.1490021,47.4160218 70.8299948,48.3958297 70.1919708,49.125 C69.5539468,49.8541703 68.779215,50.21875 67.8677521,50.21875 C67.2023842,50.21875 66.496011,49.9362007 65.7486115,49.3710938 C65.7303822,49.3619791 65.7121532,49.3619791 65.693924,49.3710938 C65.6756947,49.3802084 65.6665802,49.3938801 65.6665802,49.4121094 L65.6802521,50.6835938 L65.6802521,52.9667969 C65.6802521,53.0761724 65.6392369,53.1718746 65.5572052,53.2539062 Z M67.7857208,49.5078125 C68.5240058,49.5078125 69.1255623,49.202477 69.5904083,48.5917969 C70.0552544,47.9811167 70.287674,47.1790414 70.287674,46.1855469 C70.287674,45.2285108 70.1053841,44.4742866 69.740799,43.9228516 C69.3762138,43.3714165 68.7974435,43.0957031 68.0044708,43.0957031 C67.3664468,43.0957031 66.6145012,43.4693973 65.7486115,44.2167969 C65.7030383,44.26237 65.6802521,44.317057 65.6802521,44.3808594 L65.6802521,48.4960938 C65.6802521,48.5598962 65.7075956,48.6145831 65.7622833,48.6601562 C66.4549951,49.2252632 67.1294675,49.5078125 67.7857208,49.5078125 Z M79.408371,49.8769531 C79.3263393,49.9589848 79.2283585,50 79.1144257,50 C79.0004928,50 78.902512,49.9589848 78.8204803,49.8769531 C78.7384487,49.7949215 78.6974335,49.6946621 78.6974335,49.5761719 L78.6974335,40.2109375 C78.6974335,40.0924473 78.7384487,39.9944665 78.8204803,39.9169922 C78.902512,39.8395178 79.0004928,39.8007812 79.1144257,39.8007812 C79.2283585,39.8007812 79.3263393,39.8395178 79.408371,39.9169922 C79.4904026,39.9944665 79.5314178,40.0924473 79.5314178,40.2109375 L79.5314178,44.1210938 C79.5314178,44.1848962 79.5633186,44.2167969 79.627121,44.2167969 L84.7404022,44.2167969 C84.8042046,44.2167969 84.8361053,44.1848962 84.8361053,44.1210938 L84.8361053,40.2109375 C84.8361053,40.0924473 84.8771206,39.9944665 84.9591522,39.9169922 C85.0411839,39.8395178 85.1391647,39.8007812 85.2530975,39.8007812 C85.3670304,39.8007812 85.4627326,39.8395178 85.5402069,39.9169922 C85.6176813,39.9944665 85.6564178,40.0924473 85.6564178,40.2109375 L85.6564178,49.5898438 C85.6564178,49.6992193 85.6176813,49.7949215 85.5402069,49.8769531 C85.4627326,49.9589848 85.3670304,50 85.2530975,50 C85.1391647,50 85.0411839,49.9589848 84.9591522,49.8769531 C84.8771206,49.7949215 84.8361053,49.6992193 84.8361053,49.5898438 L84.8361053,45.0507812 C84.8361053,44.9778642 84.8042046,44.9414062 84.7404022,44.9414062 L79.627121,44.9414062 C79.5633186,44.9414062 79.5314178,44.9778642 79.5314178,45.0507812 L79.5314178,49.5761719 C79.5314178,49.6946621 79.4904026,49.7949215 79.408371,49.8769531 Z M91.3776678,50.1777344 C90.6029244,50.1777344 90.0332686,49.9407576 89.6686835,49.4667969 C89.3040983,48.9928362 89.1218085,48.2727913 89.1218085,47.3066406 L89.1218085,42.9453125 C89.1218085,42.835937 89.1628237,42.7402348 89.2448553,42.6582031 C89.326887,42.5761715 89.4225892,42.5351562 89.5319647,42.5351562 C89.6413403,42.5351562 89.7370424,42.5761715 89.8190741,42.6582031 C89.9011058,42.7402348 89.942121,42.835937 89.942121,42.9453125 L89.942121,47.2109375 C89.942121,47.985681 90.0697239,48.5530581 90.3249335,48.9130859 C90.5801431,49.2731138 90.9902952,49.453125 91.5554022,49.453125 C91.9655605,49.453125 92.3415333,49.3460297 92.6833319,49.1318359 C93.0251305,48.9176422 93.4056605,48.5644556 93.8249335,48.0722656 C93.861392,48.0266925 93.879621,47.9674483 93.879621,47.8945312 L93.879621,42.9453125 C93.879621,42.835937 93.9206362,42.7402348 94.0026678,42.6582031 C94.0846995,42.5761715 94.1804017,42.5351562 94.2897772,42.5351562 C94.3991528,42.5351562 94.4948549,42.5761715 94.5768866,42.6582031 C94.6589183,42.7402348 94.6999335,42.835937 94.6999335,42.9453125 L94.6999335,49.6582031 C94.6999335,49.7493494 94.6657541,49.8291012 94.5973944,49.8974609 C94.5290347,49.9658207 94.4470043,50 94.3513007,50 C94.2555971,50 94.1735666,49.9658207 94.1052069,49.8974609 C94.0368472,49.8291012 93.9981106,49.7493494 93.988996,49.6582031 L93.9479803,48.7832031 C93.9388657,48.7740885 93.9274726,48.7695312 93.9138007,48.7695312 C93.9001287,48.7695312 93.8887356,48.7740885 93.879621,48.7832031 C93.4876919,49.2389346 93.0934901,49.5852853 92.6970038,49.8222656 C92.3005174,50.059246 91.8607432,50.1777344 91.3776678,50.1777344 Z M99.8332928,50.1777344 C99.2043835,50.1777344 98.687136,50.0022804 98.281535,49.6513672 C97.875934,49.300454 97.6731366,48.792321 97.6731366,48.1269531 C97.6731366,47.3157512 98.0399949,46.6936871 98.7737225,46.2607422 C99.5074502,45.8277973 100.690056,45.515626 102.321574,45.3242188 C102.394491,45.3151041 102.430949,45.2695317 102.430949,45.1875 C102.430949,44.9049465 102.403606,44.6451835 102.348918,44.4082031 C102.303345,44.1712228 102.219036,43.9456391 102.095988,43.7314453 C101.972941,43.5172515 101.795208,43.3509121 101.562785,43.2324219 C101.330362,43.1139317 101.050091,43.0546875 100.721965,43.0546875 C100.020138,43.0546875 99.3274369,43.2734353 98.6438397,43.7109375 C98.5709227,43.7656253 98.4888923,43.7838543 98.397746,43.765625 C98.3065997,43.7473957 98.2336837,43.697266 98.178996,43.6152344 C98.1334228,43.5332027 98.1197511,43.4443364 98.1379803,43.3486328 C98.1562096,43.2529292 98.2063393,43.1822919 98.288371,43.1367188 C99.1542607,42.6080703 100.001908,42.34375 100.83134,42.34375 C101.669886,42.34375 102.280557,42.6080703 102.663371,43.1367188 C103.046185,43.6653672 103.23759,44.3762976 103.23759,45.2695312 L103.23759,49.6582031 C103.23759,49.7493494 103.20341,49.8291012 103.135051,49.8974609 C103.066691,49.9658207 102.986939,50 102.895793,50 C102.795532,50 102.711223,49.9680993 102.642863,49.9042969 C102.574503,49.8404945 102.535767,49.758464 102.526652,49.6582031 L102.471965,49.0566406 C102.471965,49.047526 102.467407,49.0429688 102.458293,49.0429688 C102.449178,49.0429688 102.440064,49.047526 102.430949,49.0566406 C101.510372,49.8040402 100.644495,50.1777344 99.8332928,50.1777344 Z M100.011027,49.4941406 C100.393842,49.4941406 100.769814,49.4052743 101.138957,49.2275391 C101.508099,49.0498038 101.911416,48.7740904 102.348918,48.4003906 C102.403606,48.3548175 102.430949,48.3001305 102.430949,48.2363281 L102.430949,46.0078125 C102.430949,45.9531247 102.403606,45.9257812 102.348918,45.9257812 L102.321574,45.9257812 C100.927036,46.0898446 99.9381135,46.3450504 99.3547772,46.6914062 C98.771441,47.0377621 98.4797772,47.5026012 98.4797772,48.0859375 C98.4797772,48.5690128 98.6210519,48.924478 98.9036053,49.1523438 C99.1861588,49.3802095 99.5552958,49.4941406 100.011027,49.4941406 Z M107.222512,49.8837891 C107.14048,49.9612634 107.044778,50 106.935402,50 C106.826027,50 106.730325,49.9612634 106.648293,49.8837891 C106.566261,49.8063147 106.525246,49.7083339 106.525246,49.5898438 L106.525246,42.8769531 C106.525246,42.7858068 106.559425,42.706055 106.627785,42.6376953 C106.696145,42.5693356 106.775897,42.5351562 106.867043,42.5351562 C106.958189,42.5351562 107.04022,42.567057 107.113137,42.6308594 C107.186054,42.6946618 107.227069,42.7766922 107.236183,42.8769531 L107.304543,43.65625 C107.304543,43.6653646 107.3091,43.6699219 107.318215,43.6699219 C107.327329,43.6699219 107.331887,43.6653646 107.331887,43.65625 C107.769389,43.2369771 108.186377,42.9134126 108.582863,42.6855469 C108.97935,42.4576812 109.410009,42.34375 109.874855,42.34375 C110.649599,42.34375 111.221533,42.5830054 111.590676,43.0615234 C111.959818,43.5400415 112.144387,44.262365 112.144387,45.2285156 L112.144387,49.5898438 C112.144387,49.7083339 112.10565,49.8063147 112.028176,49.8837891 C111.950701,49.9612634 111.854999,50 111.741066,50 C111.627133,50 111.531431,49.9612634 111.453957,49.8837891 C111.376483,49.8063147 111.337746,49.7083339 111.337746,49.5898438 L111.337746,45.3378906 C111.337746,44.5540325 111.205586,43.9798195 110.941262,43.6152344 C110.676937,43.2506492 110.262228,43.0683594 109.697121,43.0683594 C109.296077,43.0683594 108.924662,43.1686188 108.582863,43.3691406 C108.241065,43.5696625 107.85142,43.8932269 107.413918,44.3398438 C107.368345,44.3854169 107.345558,44.4446611 107.345558,44.5175781 L107.345558,49.5898438 C107.345558,49.7083339 107.304543,49.8063147 107.222512,49.8837891 Z M117.975012,53.5957031 C117.036205,53.5957031 116.286538,53.4134133 115.725988,53.0488281 C115.165438,52.684243 114.885168,52.1875031 114.885168,51.5585938 C114.885168,51.2395817 114.983149,50.9251318 115.179113,50.6152344 C115.375078,50.305337 115.641677,50.0319022 115.978918,49.7949219 C115.997147,49.7858072 116.006262,49.7675783 116.006262,49.7402344 C116.006262,49.7311197 116.003983,49.7220053 115.999426,49.7128906 C115.994868,49.703776 115.988032,49.6946615 115.978918,49.6855469 C115.55053,49.4212226 115.33634,49.0292995 115.33634,48.5097656 C115.33634,47.9993464 115.605217,47.5390646 116.14298,47.1289062 C116.16121,47.1197916 116.170324,47.1061199 116.170324,47.0878906 C116.170324,47.0696614 116.16121,47.0559896 116.14298,47.046875 C115.878656,46.8281239 115.65763,46.5410174 115.479894,46.1855469 C115.302159,45.8300763 115.213293,45.4472677 115.213293,45.0371094 C115.213293,44.2714805 115.473056,43.6380233 115.99259,43.1367188 C116.512124,42.6354142 117.141024,42.3847656 117.879308,42.3847656 C118.189206,42.3847656 118.489984,42.4394526 118.781652,42.5488281 C118.854569,42.5670574 118.922928,42.5761719 118.98673,42.5761719 L121.092199,42.5761719 C121.183345,42.5761719 121.263097,42.6103512 121.331457,42.6787109 C121.399817,42.7470707 121.433996,42.8268225 121.433996,42.9179688 C121.433996,43.009115 121.399817,43.0888668 121.331457,43.1572266 C121.263097,43.2255863 121.183345,43.2597656 121.092199,43.2597656 L119.848058,43.2597656 C119.829829,43.2597656 119.818436,43.2666015 119.813879,43.2802734 C119.809321,43.2939454 119.8116,43.3098957 119.820715,43.328125 C120.285561,43.7747418 120.51798,44.3489548 120.51798,45.0507812 C120.51798,45.8072954 120.265053,46.4339168 119.759191,46.9306641 C119.253329,47.4274113 118.626708,47.6757812 117.879308,47.6757812 C117.478265,47.6757812 117.109128,47.5891936 116.771887,47.4160156 C116.708084,47.3886717 116.653397,47.393229 116.607824,47.4296875 C116.261468,47.7213556 116.088293,48.0449201 116.088293,48.4003906 C116.088293,49.0293 116.557689,49.34375 117.496496,49.34375 L119.05509,49.34375 C119.911865,49.34375 120.543043,49.482746 120.948644,49.7607422 C121.354245,50.0387384 121.557043,50.4739554 121.557043,51.0664062 C121.557043,51.7500034 121.222085,52.3424454 120.55216,52.84375 C119.882235,53.3450546 119.023194,53.5957031 117.975012,53.5957031 Z M117.879308,47.0605469 C118.389728,47.0605469 118.827223,46.8714212 119.191808,46.4931641 C119.556394,46.114907 119.738683,45.6295603 119.738683,45.0371094 C119.738683,44.4355439 119.560951,43.9524758 119.20548,43.5878906 C118.85001,43.2233055 118.407957,43.0410156 117.879308,43.0410156 C117.359775,43.0410156 116.92,43.2233055 116.559973,43.5878906 C116.199945,43.9524758 116.019933,44.4355439 116.019933,45.0371094 C116.019933,45.6295603 116.202223,46.114907 116.566808,46.4931641 C116.931394,46.8714212 117.368889,47.0605469 117.879308,47.0605469 Z M118.070715,52.9804688 C118.845458,52.9804688 119.483473,52.7981789 119.984777,52.4335938 C120.486082,52.0690086 120.73673,51.649742 120.73673,51.1757812 C120.73673,50.7929668 120.597734,50.5149748 120.319738,50.3417969 C120.041742,50.1686189 119.615639,50.0820312 119.041418,50.0820312 L117.52384,50.0820312 C117.305089,50.0820312 117.027097,50.0501305 116.689855,49.9863281 C116.671626,49.9772135 116.653397,49.9726562 116.635168,49.9726562 C116.58048,49.9726562 116.534908,49.986328 116.498449,50.0136719 C115.942457,50.4329448 115.664465,50.9160129 115.664465,51.4628906 C115.664465,51.9186221 115.876377,52.2854804 116.300207,52.5634766 C116.724037,52.8414727 117.314201,52.9804688 118.070715,52.9804688 Z" id="Snowstop-Huang"></path>
                </g>
            </g>
        </g>
    </g>
</svg>